<svg id="Group_11" data-name="Group 11" xmlns="http://www.w3.org/2000/svg" width="324" height="324" viewBox="0 0 324 324">
  <path id="Path_2362" data-name="Path 2362" d="M85.095,0H238.972a87.62,87.62,0,0,1,76.355,49.641,86.974,86.974,0,0,1,7.943,27.143c.346,2.865.551,5.744.73,8.622V238.5a94.761,94.761,0,0,1-3.695,22.888,87.513,87.513,0,0,1-76.972,62.268c-1.761.173-3.525.269-5.292.349H85.5a91.886,91.886,0,0,1-28.4-5.507A87.588,87.588,0,0,1,0,238.63V85.165A87.583,87.583,0,0,1,85.095,0" transform="translate(0 0)" fill="#fecb19"/>
  <path id="Path_2352" data-name="Path 2352" d="M477.066,208.792a25.023,25.023,0,0,1,28.278,8.941c.123.18.256.358.389.538A25.041,25.041,0,0,1,476.1,255.85a25.221,25.221,0,0,1-9.678-6.712c-.3-.37-.611-.738-.915-1.1a25.036,25.036,0,0,1,11.562-39.242Z" transform="translate(-312.488 -140.587)" fill="#f0f3f8"/>
  <path id="Path_2353" data-name="Path 2353" d="M513.623,236.965a3.367,3.367,0,0,1,1.583-1.355c.506.446.9,1,1.383,1.472.171-.041.51-.117.677-.158a27.934,27.934,0,0,1,3.863,23.14,27.239,27.239,0,0,1-5.854,10.894,35.782,35.782,0,0,1-5.138,4.654,28.422,28.422,0,0,1-10.482,4.318,36.051,36.051,0,0,1-7.9.361,27.65,27.65,0,0,1-17.007-7.918,14.036,14.036,0,0,1-2.536-3.09,6.511,6.511,0,0,1,1.573-2.017c.3.367.611.734.915,1.1-.063.374-.117.747-.158,1.124a22.918,22.918,0,0,1,2.758,2.248,25.5,25.5,0,0,0,29.031,3.59,25.775,25.775,0,0,0,12.7-15.532,24.356,24.356,0,0,0,.845-10.09,25.021,25.021,0,0,0-4.6-11.869c-.26-.488-.811-.364-1.257-.339C513.88,237.323,513.747,237.146,513.623,236.965Z" transform="translate(-320.717 -159.721)" fill="#f0c018"/>
  <path id="Path_2354" data-name="Path 2354" d="M519.043,241.52c.446-.025,1-.149,1.257.339a25.022,25.022,0,0,1,4.6,11.869,24.355,24.355,0,0,1-.845,10.09,25.774,25.774,0,0,1-12.7,15.532,25.5,25.5,0,0,1-29.031-3.59,22.934,22.934,0,0,0-2.758-2.248c.041-.377.095-.75.158-1.124a25.028,25.028,0,0,0,38.684-1.561,25.062,25.062,0,0,0,.63-29.307Z" transform="translate(-325.748 -163.727)" fill="#d3aa15"/>
  <path id="Path_2355" data-name="Path 2355" d="M417.593,396.475c.779-.443,1.342-1.4,2.352-1.27,2.02-.009,4.192-.12,6.025.88a5.393,5.393,0,0,1,2.153,4.761q-.01,45.413,0,90.833a36.69,36.69,0,0,1-8.719,23.206c-1.906,1.45-3.625,3.125-5.417,4.714a38.245,38.245,0,0,1-22.826,8.25,30.877,30.877,0,0,0-3.821-.3c-9.172.047-18.346-.022-27.518.035a93.144,93.144,0,0,1-10.128.288c-2.166-.06-4.736-.31-6.11-2.222-1.418-1.953-.893-4.483-.985-6.731-.162-1.073.95-1.785.858-2.837q-.01-17.742,0-35.483c.1-1.577-.228-3.229.326-4.743.022,16.181,0,32.365.016,48.546l-.1.013a23,23,0,0,1,2.321,1.314,7.84,7.84,0,0,0,3.983.681c3.584,0,7.168-.225,10.755-.161,2.321-.288,4.635.133,6.962.051a35.544,35.544,0,0,1,4.461-.082c1.681.174,3.356-.212,5.043-.092a60.511,60.511,0,0,0,9.184.013c3.435-.133,6.911.231,10.308-.434a35.436,35.436,0,0,0,29.471-35.271q-.009-44.487-.009-88.975c.108-1.668-.947-3.046-1.675-4.451-3.236-.016-6.471-.057-9.707.028l.086-.39C415.772,396.456,416.691,396.579,417.593,396.475Z" transform="translate(-232.455 -267.35)" fill="#eebf18"/>
  <path id="Path_2356" data-name="Path 2356" d="M410.241,407.514a34.682,34.682,0,0,1,18.587-6.617c3.236-.086,6.471-.044,9.707-.029q.01,46.074,0,92.144a34.757,34.757,0,0,1-34.933,35.351c-13.5-.022-27,.041-40.5-.032a41.18,41.18,0,0,0,22.627-12.325,38.425,38.425,0,0,0,8.681-16.488c.348-1.292.6-2.606.829-3.919a47.8,47.8,0,0,0,.7-8.912c.035-17.669-.07-35.338.051-53.007A34.817,34.817,0,0,1,410.241,407.514Z" transform="translate(-246.459 -271.243)" fill="#f0f3f8"/>
  <path id="Path_2357" data-name="Path 2357" d="M426.924,400.92c.728,1.406,1.782,2.783,1.675,4.451q.033,44.488.01,88.975a35.436,35.436,0,0,1-29.472,35.271c-3.4.665-6.873.3-10.308.434a60.5,60.5,0,0,1-9.184-.013c-1.687-.12-3.362.266-5.043.092a35.568,35.568,0,0,0-4.461.082c-2.327.082-4.641-.339-6.962-.051-3.587-.063-7.171.165-10.755.161a7.84,7.84,0,0,1-3.983-.681,22.991,22.991,0,0,0-2.321-1.314l.1-.013c1.76.051,3.524-.086,5.281.066,13.5.073,27,.01,40.5.032a34.76,34.76,0,0,0,34.933-35.351Q426.922,446.99,426.924,400.92Z" transform="translate(-234.879 -271.271)" fill="#d5ab15"/>
  <path id="Path_2358" data-name="Path 2358" d="M442.291,505.646a1.041,1.041,0,0,1,.507-1.086c-.12,17.669-.016,35.338-.051,53.007a47.809,47.809,0,0,1-.7,8.912,10.225,10.225,0,0,0-2.279.5,30,30,0,0,0-8.178-10.033A6.718,6.718,0,0,1,433.4,555.5c2.71,1.431,4.189,4.483,6.889,5.933.833-.842.788-2.134.969-3.226.187-2.808-.095-5.629.1-8.437.336-.086.6-.345.94-.418Q442.269,527.5,442.291,505.646Z" transform="translate(-293.357 -342.265)" fill="#ebbc17"/>
  <path id="Path_2359" data-name="Path 2359" d="M346.38,649.932c5.1.136,10.3-.44,15.31.757a29.548,29.548,0,0,1,11.666,5.594,30,30,0,0,1,8.178,10.033c.222.447.434.9.636,1.362a21.024,21.024,0,0,1-2.207,4.274,49.968,49.968,0,0,1-5.927,7.959,31.922,31.922,0,0,1-17.229,9.732c-2.526.611-5.135.3-7.7.462-.624.117-1.558.029-1.785.788a16.408,16.408,0,0,0-.263,4.337c.057.874-.089,2.013.69,2.621,1.241.579,2.713.029,3.926.693-1.757-.152-3.52-.016-5.281-.067C346.377,682.3,346.4,666.113,346.38,649.932Z" transform="translate(-235.328 -441.1)" fill="#f1eff3"/>
  <path id="Path_2360" data-name="Path 2360" d="M457.42,700.643a10.224,10.224,0,0,1,2.279-.5c-.234,1.314-.481,2.628-.829,3.919-.257-.693-.51-1.387-.814-2.055C457.854,701.543,457.642,701.09,457.42,700.643Z" transform="translate(-310.962 -475.633)" fill="#b89513"/>
  <path id="Path_2361" data-name="Path 2361" d="M383.613,706.03c.3.668.557,1.361.814,2.055a38.427,38.427,0,0,1-8.681,16.488A41.179,41.179,0,0,1,353.119,736.9c-1.213-.665-2.685-.114-3.926-.693-.779-.608-.633-1.748-.69-2.622a16.407,16.407,0,0,1,.263-4.337c.228-.76,1.162-.671,1.786-.788,2.564-.158,5.173.149,7.7-.462a31.92,31.92,0,0,0,17.229-9.732,49.963,49.963,0,0,0,5.927-7.959A21.021,21.021,0,0,0,383.613,706.03Z" transform="translate(-236.762 -479.4)" fill="#dde4ee"/>
</svg>
