<?xml version="1.0" encoding="utf-8"?>
<!-- Generator: Adobe Illustrator 23.0.0, SVG Export Plug-In . SVG Version: 6.00 Build 0)  -->
<svg version="1.1" id="Layer_1" xmlns="http://www.w3.org/2000/svg" xmlns:xlink="http://www.w3.org/1999/xlink" x="0px" y="0px"
	 viewBox="0 0 264 268" style="enable-background:new 0 0 264 268;" xml:space="preserve">
<style type="text/css">
	.st0{fill:#7896BB;}
	.st1{fill:#FFFFFF;}
	.st2{fill:#405C80;}
	.st3{fill:#154582;}
	.st4{opacity:0.36;fill:#E8ECF0;}
	.st5{opacity:0.4;fill:#89A4C4;}
	.st6{fill:#77ACEE;}
	.st7{fill:#FFFFFF;stroke:#45809E;stroke-width:1.071;stroke-miterlimit:10;}
	.st8{fill:#FF8432;}
	.st9{fill:#FFFFFF;stroke:#45809E;stroke-width:0.9418;stroke-miterlimit:10;}
	.st10{fill:none;stroke:#FFFFFF;stroke-width:3;stroke-miterlimit:10;}
	.st11{fill:#1E4C83;}
	.st12{fill:#EFC8BC;}
	.st13{fill:#E0E5EB;}
	.st14{fill:#0A4185;}
	.st15{fill:#EAB5A4;}
	.st16{fill:#E6EBF2;}
	.st17{opacity:0.75;}
	.st18{opacity:0.4;fill:#A3B8D1;}
	.st19{fill:#4A73A4;}
	.st20{fill:#FFFFFF;stroke:#89A4C4;stroke-width:2.2167;stroke-miterlimit:10;}
	.st21{fill:#B5C6DA;}
	.st22{fill:#97CBFF;}
	.st23{fill:#E8ECF0;}
	.st24{fill:#F59B7F;}
	.st25{fill:#FDFFFF;}
	.st26{fill:#B8C3D0;}
	.st27{fill:#7A95B8;}
	.st28{fill:#5389D0;}
	.st29{opacity:0.34;fill:#154582;}
	.st30{fill:#E8B390;}
	.st31{fill:#B0C2D6;}
	.st32{fill:#5981B2;}
	.st33{fill:#47678E;}
	.st34{fill:#45809E;}
	.st35{fill:#BACADC;}
	.st36{opacity:0.46;fill:#FFFFFF;}
	.st37{fill:#7BAFF9;}
	.st38{fill:#FEFDFD;}
	.st39{fill:#DBE3ED;}
	.st40{fill:#A3B8D1;}
	.st41{fill:#E3E9F1;}
	.st42{fill:#305F98;}
	.st43{opacity:0.46;fill:#FFFFFF;enable-background:new    ;}
	.st44{fill:#513554;}
	.st45{fill:#FCFEFF;}
	.st46{fill:#1C4F8E;}
	.st47{fill:#4F77A7;}
	.st48{fill:none;stroke:#FFFFFF;stroke-width:10.2858;stroke-linecap:round;stroke-linejoin:round;stroke-miterlimit:10;}
	.st49{opacity:0.27;fill:#4F77A7;enable-background:new    ;}
</style>
<g>
	<g>
		<polygon class="st0" points="137.2,75.1 106.3,57.3 106.3,22 137.2,39.8 		"/>
		<path class="st1" d="M130.9,66c0-2.4-1-6.3-2-7.7l0,0c-0.4-0.7-1-1.2-1.5-1.6c-0.5-0.5-1.1-1.1-1.7-1.8c-0.2-0.2-0.4-0.4-0.6-0.6
			v0l-1.3-1.3c-0.2-0.2-0.4-0.5-0.6-0.7c0,0-0.1-0.1-0.1-0.2c0-0.1,0-0.2,0-0.3c0-0.6,0-1.1-0.1-1.7c0.5-0.3,0.8-0.9,0.9-1.7
			c0.8,0.5,1-0.6,1.1-1.4c0.1-0.5,0.1-1.9-0.5-2.5c0-0.1,0-0.2,0-0.2c0.1-0.5,0.2-0.9,0.2-1.5c0-0.5-0.1-1.1-0.3-1.7
			c-0.1-0.1-0.1-0.3-0.2-0.4c0-0.2,0-0.4-0.1-0.6c-0.5-1.6-1.5-3.1-2.5-4c-1-0.9-2.1-1.3-3.1-1.5c-0.7-0.1-1.7,0-1.7,1.3
			c0,0.2,0,0.3,0.1,0.5c-0.1-0.1-0.2,0-0.3,0.1c-0.2,0.3-0.3,0.8-0.3,1.4c0,0.5,0.1,1.1,0.2,1.7c0,0.1,0,0.2,0.1,0.3
			c-0.8-0.5-0.6,1.2-0.5,1.9c0.1,0.9,0.4,2.1,1.1,2.6c0.1,0.4,0.1,0.8,0.3,1.1c0.2,0.6,0.4,1.1,0.7,1.5c0,0,0,0,0,0
			c0,0.6,0.1,1.2,0.1,1.8c0,0,0,0.1,0,0.2c0,0-0.1,0.1-0.2,0.1c-0.1,0.1-0.2,0.1-0.3,0.2c0,0,0,0,0,0l-0.3-0.1l0,0l-0.1,0
			c-0.2,0-0.4-0.1-0.7-0.1l0,0l0,0c-0.3,0-0.6,0-0.8,0c-0.5,0-1,0-1.5-0.1c-0.5-0.1-1-0.2-1.4-0.1c-0.9,0.3-1.8,1.7-1.7,6.3
			l19.8,12.1L130.9,66z M124.9,47c0,0.1,0,0.1,0,0.2C124.9,47.1,124.9,47,124.9,47z"/>
		<polygon class="st2" points="155.1,51.2 141.2,43.2 141.2,47.9 155.1,55.9 		"/>
		<polygon class="st3" points="167,73.1 140.6,57.8 140.6,53.2 167,68.4 		"/>
		<polygon class="st3" points="166.4,83.1 140,67.8 140,63.1 166.4,78.4 		"/>
		<polygon class="st4" points="124.1,79.7 93.2,61.9 93.2,26.6 124.1,44.4 		"/>
	</g>
	<g>
		<path class="st5" d="M189.9,180.3c-6.5-13.2-30.4-20.9-53.3-17.1c-20.2,3.3-32.9,14.5-31.1,26.2c-0.5,3,0,6.1,1.5,9.1
			c0.9,1.8,2.1,3.5,3.5,5l-6.8,3.9c-0.9-0.8-1.8-1.5-2.8-1.9c-2.1-1-4-0.9-5.2,0l0,0L58,228l0,0c-1.4,0.8-2.2,2.5-2,4.9
			c0.4,4.6,4,9.9,8.1,11.8c1.8,0.9,3.5,0.9,4.7,0.4l0,0l0,0c0.2-0.1,0.3-0.2,0.4-0.3l37.4-22.4l0,0c1.6-0.7,2.5-2.5,2.3-5.1
			c-0.1-0.7-0.2-1.3-0.4-2l9.9-5.7c10.7,5.9,26.4,8.5,41.7,6c20.2-3.3,32.9-14.5,31.1-26.2C191.8,186.4,191.4,183.4,189.9,180.3z
			 M123.7,199.4c0.7,0.5,1.4,0.9,2.2,1.3C125.2,200.2,124.4,199.8,123.7,199.4z M178.5,193.5c0.6-0.8,1-1.7,1.4-2.6
			C179.5,191.8,179,192.7,178.5,193.5c-0.4,0.6-0.8,1.1-1.3,1.7C177.7,194.7,178.1,194.1,178.5,193.5z M132.2,203.3
			c0.8,0.3,1.6,0.5,2.5,0.7C133.9,203.8,133.1,203.6,132.2,203.3c-0.9-0.3-1.8-0.6-2.7-1C130.4,202.7,131.3,203,132.2,203.3z
			 M147.3,205.7c-1.6,0-3.2-0.1-4.7-0.3C144.1,205.6,145.7,205.6,147.3,205.7z M157,204.9c5.4-0.9,10.1-2.5,13.8-4.6
			C167.1,202.4,162.4,204,157,204.9c-2.2,0.4-4.3,0.6-6.5,0.7C152.7,205.5,154.8,205.3,157,204.9z M174.9,197.5
			c-0.6,0.5-1.2,1-1.9,1.4C173.6,198.5,174.3,198,174.9,197.5z"/>
		<g>
			<path class="st3" d="M182.2,180.1c-6.5-13.2-30.4-20.9-53.3-17.1c-22.9,3.8-36.1,17.5-29.6,30.8c6.5,13.2,30.4,20.9,53.3,17.1
				C175.5,207.1,188.8,193.3,182.2,180.1z M109.1,191.9c-4.9-10,5.1-20.4,22.4-23.2c17.3-2.9,35.3,2.9,40.2,12.9
				c4.9,10-5.1,20.4-22.4,23.2C132.1,207.6,114.1,201.8,109.1,191.9z"/>
			<polygon class="st6" points="86.7,218.9 77.4,213.5 109.4,195.1 118.7,200.4 			"/>
			<path class="st7" d="M182.2,175.6c-6.5-13.2-30.4-20.9-53.3-17.1c-22.9,3.8-36.1,17.5-29.6,30.8c6.5,13.2,30.4,20.9,53.3,17.1
				C175.5,202.6,188.8,188.8,182.2,175.6z M109.1,187.3c-4.9-10,5.1-20.4,22.4-23.2c17.3-2.9,35.3,2.9,40.2,12.9
				c4.9,10-5.1,20.4-22.4,23.2C132.1,203.1,114.1,197.3,109.1,187.3z"/>
			<g>
				
					<ellipse transform="matrix(0.8237 -0.567 0.567 0.8237 -102.3982 90.5721)" class="st8" cx="94.5" cy="210" rx="5.9" ry="10.2"/>
				<polygon class="st8" points="50.9,224.2 88.6,201.7 99.6,218.7 61.8,241.3 				"/>
				<path class="st3" d="M63.9,236.3c0.4,4.6-2.7,6.7-6.8,4.7c-4.1-2-7.8-7.3-8.1-11.8c-0.4-4.6,2.7-6.7,6.8-4.7
					C59.9,226.4,63.6,231.7,63.9,236.3z"/>
			</g>
		</g>
		<path class="st1" d="M147,177.4l-24.3,2.4c-1.2,0.1-2.4-0.8-2.5-2l0,0c-0.1-1.2,0.8-2.4,2-2.5l24.3-2.4c1.2-0.1,2.4,0.8,2.5,2l0,0
			C149.2,176.2,148.3,177.3,147,177.4z"/>
		<path class="st1" d="M147.2,184.3l-24.3,2.4c-1.2,0.1-2.4-0.8-2.5-2l0,0c-0.1-1.2,0.8-2.4,2-2.5l24.3-2.4c1.2-0.1,2.4,0.8,2.5,2
			l0,0C149.4,183.1,148.5,184.2,147.2,184.3z"/>
	</g>
	<g>
		<path class="st9" d="M213.7,173.3L96.9,105.8C90.3,102,85,91.8,85,83.1l0,0c0-8.7,5.3-12.8,11.9-9l99.8,57.6
			c6.5,3.8,23.5,28.5,23.5,37.3l17.7,2.4C237.9,180.1,220.2,177,213.7,173.3z"/>
		<path class="st8" d="M223.4,147.2l-26.7-15.4l-0.9,31.2l27.6,15.9c8.8,5.1,15.9,2.1,15.9-6.5v-0.3
			C239.3,163.4,232.2,152.2,223.4,147.2z"/>
		<path class="st10" d="M218.7,158.4c0,4.6-3.2,6.4-7.2,4.1c-4-2.3-7.2-7.8-7.2-12.4c0-4.6,3.2-6.4,7.2-4.1
			C215.5,148.3,218.7,153.9,218.7,158.4z"/>
		<path class="st1" d="M223.4,171L223.4,171c-0.7,0.5-1.7,0.4-2.2-0.2l-5.1-6.3c-0.5-0.7-0.4-1.7,0.2-2.2l0,0
			c0.7-0.5,1.7-0.4,2.2,0.2l5.1,6.3C224.2,169.5,224.1,170.5,223.4,171z"/>
	</g>
	<g>
		
			<ellipse transform="matrix(1.774547e-02 -0.9998 0.9998 1.774547e-02 -119.2643 247.9955)" class="st11" cx="66.6" cy="184.7" rx="11.3" ry="22.8"/>
		<path class="st6" d="M79.6,180.8l2.5-7.9l2.7-2.8c3.9,3.3,3.1,3.2,2.7,5.1l-2.6,6.2c-1.6,2.9-2.3,3.6-4.2,4l0,0
			C79.2,185.1,79.2,183.3,79.6,180.8z"/>
		<g>
			<path class="st8" d="M83.6,174.9c-0.6,0-1.1-0.2-1.6-0.5c-0.4-0.3-10.6-6.4-14.1-16.7c-1.8-5.1-7.2-23.8-7.3-24.5
				c-0.2-1.6,4.6-0.7,6.2-0.9c1.6-0.2,5.4-1.6,5.9-0.1c1.5,4.7,0.1,19.6,1.4,23.3c2.9,8.4,11,13.8,11.1,13.8
				c1.4,0.9,1.8,2.8,0.9,4.1C85.5,174.4,84.6,174.9,83.6,174.9z"/>
		</g>
		<path class="st6" d="M45.8,181.9l7.4-3.6l3.9,0.1c0.2,5.1-0.2,4.4-1.9,5.4l-6.3,2.3c-3.2,0.8-4.2,0.8-5.8-0.3l0,0
			C42.4,184.5,43.6,183.3,45.8,181.9z"/>
		<g>
			<path class="st8" d="M54.2,180.8c-1.4,0-2.7-1-2.9-2.5c-6.1-35,0.7-49.8,1-50.4c0.7-1.5,2.5-2.1,4-1.4c1.5,0.7-0.2,4.2,1.4,4
				c8.9-1.3-6.2,14.1-0.5,46.8c0.3,1.6-0.8,3.2-2.4,3.4C54.6,180.8,54.4,180.8,54.2,180.8z"/>
		</g>
		<g>
			<g>
				<path class="st12" d="M43.9,98.2c-0.8,2.8-3.4,8-6.9,8.2c-5.1,0.4-5-12.3-5-15c-0.1-2.8-4.5-2.9-4.4,0
					c0.2,5.8,0.6,19.7,9.4,19.4c5.6-0.2,9.8-6.6,11.2-11.5C49,96.6,44.7,95.5,43.9,98.2L43.9,98.2z"/>
			</g>
		</g>
		<path class="st6" d="M48.4,87.4c-2.8,2.3-4.8,6.2-6.8,10.2c-0.7,1-0.2,2.6,1,3.4l3.9,3.3c0.9,0.4,2.5-1.3,3-2.2L54.8,92
			c0.9-1.7,0.4-3.7-1.1-4.7h0C52.1,86.3,50.5,85.9,48.4,87.4z"/>
		<path class="st13" d="M65.6,92l-10.7-2.2l1.3-5.3c3.2-0.2,5.5,0.7,8.2,2.4L65.6,92z"/>
		<g>
			<path class="st8" d="M55.5,136.5c1.6,1.1,8.9,5,10.9,4.9c2.4-0.1,3.6-0.3,5.3-1.9c1.6-1.6,1.9-4.1,2-6.3c0-0.6,0-1.3-0.3-1.9
				c-0.3-0.6-0.9-1-1.4-1.4c-4.4-3-13-10.6-18.8-7.8C46.4,125.2,52.8,134.6,55.5,136.5z"/>
		</g>
		<path class="st6" d="M49.8,88.2c-1.2,1.7-1,2.7-0.8,4.9c0.1,2.2,1.7,4,3.8,4.5l21.5,5.1c0,0,4.1-6.8-0.2-9.1
			c-2.3-1.2-9.1-4.6-11.9-6.2C58,85,52.6,84.3,49.8,88.2z"/>
		<path class="st6" d="M50.1,125.9c0.3-1,0.7-21.5-1.1-36l24.4,10.4c0.3,10.9-0.7,19.6,1.2,32.8L50.1,125.9z"/>
		<path class="st6" d="M66.6,135.9c-6-1.9-12.1-4.5-15.6-8.4c-1.7-0.9-1.1-2.1,0.7-3.3h0c1.8-1.2,4.7-1.4,6.3-0.5l15.2,7.9
			c1.7,0.9,1.5,2.5-0.3,3.7l0,0C71.1,136.6,68.3,136.8,66.6,135.9z"/>
		<path class="st1" d="M60,90.5c0,0-2.6,0.1-3.3-4.4L55,85.9c-0.2,0.2-0.7,0.1-0.9,1.6c-0.1,0.9,0,1.8,0.3,2.7l0.7,2.6
			c0.2,0.6,0.9,0.8,1.4,0.4L60,90.5z"/>
		<path class="st12" d="M58.6,89.6l-1.4-9.2l5.4,2.3l1.2,7.5C64,91.5,59.8,94.3,58.6,89.6z"/>
		<path class="st12" d="M58.6,88.2l-1.8,0.2c-2.8,0.3-5.3-1.8-5.6-4.6l-0.9-9.2c-0.3-2.8,1.8-5.3,4.6-5.6l1.8-0.2
			c2.8-0.3,5.3,1.8,5.6,4.6l0.9,9.2C63.5,85.4,61.4,88,58.6,88.2z"/>
		<path class="st14" d="M57.8,76.1c-1.8,1-4.4,1.3-6.5,0.6c-2.3-0.7-2.6-3.9-0.9-5.7c0.9-1,1.9-1.6,3.9-2.6
			c5.7-2.8,12.1-0.4,12.8,6.3c0,0,1.1,9.2-4.1,10.9l-0.2-0.6c-0.1-0.4-0.1-0.9,0.1-1.3c0.4-0.7,0.8-2.1-0.9-3.2
			c-0.8-0.5-1.5-1.7-1.5-2.8C60.5,76.5,58.8,75.5,57.8,76.1z"/>
		<path class="st12" d="M64,82.8c-0.7,0.8-1.7,0.7-2.1-0.2c-0.5-0.9-0.3-2.3,0.4-3.1c0.7-0.8,1.7-0.7,2.1,0.2
			C64.8,80.6,64.7,82,64,82.8z"/>
		<path class="st15" d="M58.3,88.3c0.8-0.2,2.6-0.9,2.8-1c0,0-1.3,1.5-2.6,2.1L58.3,88.3z"/>
		<path class="st1" d="M58.7,90.4c0,0,3,0.9,5.8-3.4l2,2.3c0.2,0.4,0.2,0.4-0.1,0.7l-3.7,4.4c-0.4,0.5-1.3,0.5-1.6,0L58.7,90.4z"/>
		<g>
			<path class="st6" d="M45.2,82.7l-8.4,2.9l1,3l8.4-2.9c0.5-0.2,0.7-1,0.4-1.8C46.4,83,45.7,82.5,45.2,82.7z"/>
			<path class="st6" d="M43.4,82.5l-11.9,4.1l1.4,4.2l11.9-4.1c0.7-0.2,1-1.4,0.6-2.6C45.1,83,44.2,82.3,43.4,82.5z"/>
			<path class="st6" d="M36,84.1C36,84.1,36,84.1,36,84.1l-14.7,4.6l0,0c0,0,0,0-0.1,0c-1,0.4-1.3,2.2-0.7,4.1c0.6,1.9,2,3.2,3,2.8
				c0,0,0,0,0.1,0l0,0l14.4-5.4l0,0c1-0.4,1.4-2,0.8-3.7C38.4,84.8,37.1,83.7,36,84.1z"/>
			<g>
				<path class="st8" d="M26.6,86.5C26.6,86.5,26.6,86.5,26.6,86.5l-7.1,1.7l3.2,8.6l6.4-2.8h0c1.3-0.4,1.8-2.5,1-4.6
					C29.5,87.3,27.9,86,26.6,86.5z"/>
				<path class="st16" d="M23.9,91.6c0.8,2.4,0.1,4.8-1.6,5.4c-1.7,0.6-3.7-0.9-4.6-3.3c-0.8-2.4-0.1-4.8,1.6-5.4
					C21,87.7,23.1,89.1,23.9,91.6z"/>
				<path class="st6" d="M23.2,91.8c0.6,1.8,0.1,3.7-1.2,4.1c-1.3,0.4-2.9-0.7-3.5-2.5c-0.6-1.8-0.1-3.7,1.2-4.1
					C21,88.8,22.6,90,23.2,91.8z"/>
			</g>
		</g>
		<path class="st12" d="M28.3,84.2l1.2-0.1c1.1-0.1,2.1,0.8,2.1,1.9l0,1c0.1,1.1-0.8,2.1-1.9,2.1l-1.2,0.1c-1.1,0.1-2.1-0.8-2.1-1.9
			l0-1C26.3,85.2,27.2,84.3,28.3,84.2z"/>
		<g>
			<path class="st12" d="M72.3,99.3c2.1,4.4,5.2,8.2,7.3,12.5c4.1,8.1,5.5,17.2,6,26.2c0.1,2.8,4.6,2.8,4.4,0
				c-0.5-9.2-1.9-18.4-5.8-26.9c-2.3-4.9-5.8-9.1-8.1-14C75,94.5,71.1,96.7,72.3,99.3L72.3,99.3z"/>
		</g>
		<path class="st6" d="M69.3,98.4l6.2,10.1c2.4,2.5,8.1-2.8,6.3-5L75,94.3c-1.2-1.4-3.2-1.7-4.7-0.7l0,0
			C68.7,94.7,68.3,96.8,69.3,98.4z"/>
		<path class="st16" d="M20.6,90.8c-0.2-0.8-1.2-1-1.7-0.3c-0.4,0.6-0.6,1.6,0.4,3.4C21.2,97.2,21.4,93.7,20.6,90.8z"/>
		<path class="st1" d="M20.9,90.6c0.2,0.3,0.1,0.7-0.1,0.9c-0.3,0.2-0.7,0-0.9-0.3c-0.2-0.3-0.1-0.7,0.1-0.9S20.7,90.3,20.9,90.6z"
			/>
	</g>
	<g>
		<path class="st3" d="M175.7,26.7l-3.1,78.3l70.7,39l3.1-78.3L175.7,26.7z"/>
		<path class="st1" d="M211.2,102.9L204,99c-0.1,0-0.1-0.1-0.2-0.1l-10.1-5.5c-0.1,0-0.1-0.1-0.2-0.1l-6.3-3.4
			c-0.9-0.5-1.6,0.1-1.6,1.3c0,1.2,0.8,2.6,1.7,3.1l10.1,5.5c0.1,0,0.1,0.1,0.2,0.1l3.5,1.9c0.1,0,0.1,0.1,0.2,0.1l10.1,5.5
			c0.9,0.5,1.6-0.1,1.6-1.3C212.9,104.8,212.1,103.4,211.2,102.9z"/>
		<path class="st1" d="M197.3,108.7l-10.1-5.5c-0.9-0.5-1.7-1.9-1.7-3.1l0,0c0-1.2,0.7-1.8,1.6-1.3l10.1,5.5
			c0.9,0.5,1.7,1.9,1.7,3.1l0,0C198.9,108.6,198.2,109.2,197.3,108.7z"/>
		<g>
			<g>
				<path class="st6" d="M185.8,60.3c0,10,7.5,21.6,16.6,26c9.1,4.4,16.5-0.1,16.5-10.1s-7.5-21.6-16.6-26
					C193.1,45.8,185.7,50.3,185.8,60.3z M213.4,73.6c0,6.7-4.9,9.7-11.1,6.8c-6.1-2.9-11.1-10.8-11.1-17.5c0-6.7,4.9-9.7,11.1-6.8
					C208.4,59.1,213.4,66.9,213.4,73.6z"/>
				<path class="st8" d="M202.3,50.2c-5.6-2.7-10.5-2-13.5,1.2l4.5,5.5c2-2.1,5.3-2.5,9-0.7c5.1,2.4,9.4,8.2,10.7,13.9l5.3,1.1
					C216.3,62.6,209.9,53.8,202.3,50.2z"/>
				<path class="st1" d="M189.9,74.3l4.1-1.9c-1.8-3-2.9-6.4-2.9-9.5c0-2.8,0.9-5,2.4-6.4l-4.2-5.8c-2.3,2-3.6,5.3-3.6,9.6
					C185.8,64.9,187.4,69.8,189.9,74.3z"/>
			</g>
			<path class="st1" d="M234.7,74.5l-8.2-4.4c-0.7-0.4-1.4-1.6-1.4-2.6l0,0c0-1,0.5-1.5,1.3-1.1l8.2,4.4c0.7,0.4,1.4,1.6,1.4,2.6
				l0,0C236,74.3,235.5,74.9,234.7,74.5z"/>
			<path class="st1" d="M234.3,85.3l-8.2-4.4c-0.7-0.4-1.4-1.6-1.4-2.6l0,0c0-1,0.5-1.5,1.3-1.1l8.2,4.4c0.7,0.4,1.4,1.6,1.4,2.6
				l0,0C235.6,85.1,235,85.7,234.3,85.3z"/>
			<path class="st1" d="M233.9,96l-8.2-4.4c-0.7-0.4-1.4-1.6-1.4-2.6l0,0c0-1,0.5-1.5,1.3-1.1l8.2,4.4c0.7,0.4,1.4,1.6,1.4,2.6l0,0
				C235.2,95.9,234.7,96.4,233.9,96z"/>
		</g>
	</g>
	<path class="st5" d="M239.6,228.3L239.6,228.3c-1.9-1.1-0.6-2.9,2.1-2.9l0,0c3,0,5.4-1.4,5.4-3.1l0-0.9c0-1.7-2.4-3.1-5.4-3.1l0,0
		c-2.6,0-4-1.8-2.1-2.9h0c2.1-1.2,2.1-3.2,0-4.4l-1.1-0.6c-2.1-1.2-5.5-1.2-7.6,0l0,0c-1.9,1.1-5,0.3-5-1.2v0c0-1.7-2.4-3.1-5.4-3.1
		l-1.5,0c-3,0-5.4,1.4-5.4,3.1l0,0c0,1.5-3.2,2.3-5,1.2h0c-2.1-1.2-5.5-1.2-7.6,0l-1.1,0.6c-2.1,1.2-2.1,3.2,0,4.4
		c1.9,1.1,0.6,2.9-2.1,2.9l0,0c-3,0-5.4,1.4-5.4,3.1l0,0.9c0,1.7,2.4,3.1,5.4,3.1h0c2.6,0,4,1.8,2.1,2.9l0,0c-2.1,1.2-2.1,3.2,0,4.4
		l1.1,0.6c2.1,1.2,5.5,1.2,7.6,0c1.9-1.1,5-0.3,5,1.2c0,1.7,2.4,3.1,5.4,3.1l1.5,0c3,0,5.4-1.4,5.4-3.1l0,0c0-1.5,3.2-2.3,5-1.2h0
		c2.1,1.2,5.5,1.2,7.6,0l1.1-0.6C241.7,231.5,241.7,229.5,239.6,228.3z M210.2,227.2c-5.2-3-5.3-7.9-0.1-10.9c5.2-3,13.7-3,18.9,0
		c5.2,3,5.3,7.9,0.1,10.9C223.9,230.2,215.5,230.2,210.2,227.2z"/>
	<path class="st5" d="M187.2,240.8L187.2,240.8c-1.2-0.7-0.4-1.9,1.4-1.9l0,0c2,0,3.6-0.9,3.6-2.1l0-0.6c0-1.1-1.6-2.1-3.6-2.1l0,0
		c-1.8,0-2.6-1.2-1.4-1.9l0,0c1.4-0.8,1.4-2.1,0-2.9l-0.7-0.4c-1.4-0.8-3.7-0.8-5.1,0h0c-1.2,0.7-3.4,0.2-3.4-0.8v0
		c0-1.1-1.6-2.1-3.6-2.1l-1,0c-2,0-3.6,0.9-3.6,2.1l0,0c0,1-2.1,1.5-3.4,0.8l0,0c-1.4-0.8-3.7-0.8-5.1,0l-0.7,0.4
		c-1.4,0.8-1.4,2.1,0,2.9c1.2,0.7,0.4,1.9-1.4,1.9l0,0c-2,0-3.6,0.9-3.6,2.1l0,0.6c0,1.1,1.6,2.1,3.6,2.1h0c1.8,0,2.6,1.2,1.4,1.9
		l0,0c-1.4,0.8-1.4,2.1,0,2.9l0.7,0.4c1.4,0.8,3.7,0.8,5.1,0c1.2-0.7,3.4-0.2,3.4,0.8c0,1.1,1.6,2.1,3.6,2.1l1,0
		c2,0,3.6-0.9,3.6-2.1l0,0c0-1,2.1-1.5,3.4-0.8h0c1.4,0.8,3.7,0.8,5.1,0l0.7-0.4C188.6,242.9,188.6,241.6,187.2,240.8z M167.6,240.1
		c-3.5-2-3.5-5.3,0-7.3c3.5-2,9.1-2,12.6,0c3.5,2,3.5,5.3,0,7.3C176.8,242.1,171.1,242.1,167.6,240.1z"/>
	<g>
		<path class="st6" d="M233.2,226.8L233.2,226.8c-1.9-1.1-0.6-2.9,2.1-2.9l0,0c3,0,5.4-1.4,5.4-3.1l0-0.9c0-1.7-2.4-3.1-5.4-3.1l0,0
			c-2.6,0-4-1.8-2.1-2.9l0,0c2.1-1.2,2.1-3.2,0-4.4l-1.1-0.6c-2.1-1.2-5.5-1.2-7.6,0v0c-1.9,1.1-5,0.3-5-1.2v0
			c0-1.7-2.4-3.1-5.4-3.1l-1.5,0c-3,0-5.4,1.4-5.4,3.1l0,0c0,1.5-3.2,2.3-5,1.2l0,0c-2.1-1.2-5.5-1.2-7.6,0l-1.1,0.6
			c-2.1,1.2-2.1,3.2,0,4.4c1.9,1.1,0.6,2.9-2.1,2.9h0c-3,0-5.4,1.4-5.4,3.1l0,0.9c0,1.7,2.4,3.1,5.4,3.1h0c2.6,0,4,1.8,2.1,2.9v0
			c-2.1,1.2-2.1,3.2,0,4.4l1.1,0.6c2.1,1.2,5.5,1.2,7.6,0c1.9-1.1,5-0.3,5,1.2c0,1.7,2.4,3.1,5.4,3.1l1.5,0c3,0,5.4-1.4,5.4-3.1l0,0
			c0-1.5,3.2-2.3,5-1.2l0,0c2.1,1.2,5.5,1.2,7.6,0l1.1-0.6C235.4,230,235.4,228,233.2,226.8z M203.9,225.7c-5.2-3-5.3-7.9-0.1-10.9
			c5.2-3,13.7-3,18.9,0s5.3,7.9,0.1,10.9C217.6,228.8,209.1,228.8,203.9,225.7z"/>
		<path class="st3" d="M233.2,222.7L233.2,222.7c-1.9-1.1-0.6-2.9,2.1-2.9l0,0c3,0,5.4-1.4,5.4-3.1l0-0.9c0-1.7-2.4-3.1-5.4-3.1l0,0
			c-2.6,0-4-1.8-2.1-2.9l0,0c2.1-1.2,2.1-3.2,0-4.4l-1.1-0.6c-2.1-1.2-5.5-1.2-7.6,0v0c-1.9,1.1-5,0.3-5-1.2v0
			c0-1.7-2.4-3.1-5.4-3.1l-1.5,0c-3,0-5.4,1.4-5.4,3.1l0,0c0,1.5-3.2,2.3-5,1.2l0,0c-2.1-1.2-5.5-1.2-7.6,0l-1.1,0.6
			c-2.1,1.2-2.1,3.2,0,4.4c1.9,1.1,0.6,2.9-2.1,2.9h0c-3,0-5.4,1.4-5.4,3.1l0,0.9c0,1.7,2.4,3.1,5.4,3.1h0c2.6,0,4,1.8,2.1,2.9l0,0
			c-2.1,1.2-2.1,3.2,0,4.4l1.1,0.6c2.1,1.2,5.5,1.2,7.6,0c1.9-1.1,5-0.3,5,1.2c0,1.7,2.4,3.1,5.4,3.1l1.5,0c3,0,5.4-1.4,5.4-3.1v0
			c0-1.5,3.2-2.3,5-1.2l0,0c2.1,1.2,5.5,1.2,7.6,0l1.1-0.6C235.4,225.9,235.4,223.9,233.2,222.7z M203.9,221.6
			c-5.2-3-5.3-7.9-0.1-10.9c5.2-3,13.7-3,18.9,0s5.3,7.9,0.1,10.9C217.6,224.7,209.1,224.6,203.9,221.6z"/>
	</g>
	<g>
		<path class="st6" d="M182.2,238.8L182.2,238.8c-1.2-0.7-0.4-1.9,1.3-1.9h0c1.9,0,3.5-0.9,3.5-2l0-0.6c0-1.1-1.6-2-3.5-2l0,0
			c-1.7,0-2.6-1.2-1.4-1.9h0c1.4-0.8,1.4-2.1,0-2.9l-0.7-0.4c-1.4-0.8-3.6-0.8-4.9,0h0c-1.2,0.7-3.3,0.2-3.3-0.8l0,0
			c0-1.1-1.6-2-3.5-2l-1,0c-1.9,0-3.5,0.9-3.5,2l0,0c0,1-2.1,1.5-3.3,0.8l0,0c-1.4-0.8-3.6-0.8-4.9,0l-0.7,0.4
			c-1.4,0.8-1.4,2.1,0,2.9c1.2,0.7,0.4,1.9-1.3,1.9l0,0c-1.9,0-3.5,0.9-3.5,2l0,0.6c0,1.1,1.6,2,3.5,2h0c1.7,0,2.6,1.2,1.4,1.9h0
			c-1.4,0.8-1.4,2.1,0,2.9l0.7,0.4c1.4,0.8,3.6,0.8,4.9,0c1.2-0.7,3.3-0.2,3.3,0.8c0,1.1,1.6,2,3.5,2l1,0c1.9,0,3.5-0.9,3.5-2l0,0
			c0-1,2.1-1.5,3.3-0.8l0,0c1.4,0.8,3.6,0.8,4.9,0l0.7-0.4C183.6,240.9,183.6,239.6,182.2,238.8z M163.1,238.1c-3.4-2-3.4-5.1,0-7.1
			c3.4-2,8.9-1.9,12.3,0c3.4,2,3.4,5.1,0,7.1C172,240.1,166.5,240.1,163.1,238.1z"/>
		<path class="st3" d="M182.2,236.2L182.2,236.2c-1.2-0.7-0.4-1.9,1.3-1.9h0c1.9,0,3.5-0.9,3.5-2l0-0.6c0-1.1-1.6-2-3.5-2v0
			c-1.7,0-2.6-1.2-1.4-1.9h0c1.4-0.8,1.4-2.1,0-2.9l-0.7-0.4c-1.4-0.8-3.6-0.8-4.9,0l0,0c-1.2,0.7-3.3,0.2-3.3-0.8v0
			c0-1.1-1.6-2-3.5-2l-1,0c-1.9,0-3.5,0.9-3.5,2l0,0c0,1-2.1,1.5-3.3,0.8l0,0c-1.4-0.8-3.6-0.8-4.9,0l-0.7,0.4
			c-1.4,0.8-1.4,2.1,0,2.9c1.2,0.7,0.4,1.9-1.3,1.9l0,0c-1.9,0-3.5,0.9-3.5,2l0,0.6c0,1.1,1.6,2,3.5,2h0c1.7,0,2.6,1.2,1.4,1.9h0
			c-1.4,0.8-1.4,2.1,0,2.9l0.7,0.4c1.4,0.8,3.6,0.8,4.9,0c1.2-0.7,3.3-0.2,3.3,0.8c0,1.1,1.6,2,3.5,2l1,0c1.9,0,3.5-0.9,3.5-2v0
			c0-1,2.1-1.5,3.3-0.8h0c1.4,0.8,3.6,0.8,4.9,0l0.7-0.4C183.6,238.2,183.6,236.9,182.2,236.2z M163.1,235.5c-3.4-2-3.4-5.1,0-7.1
			c3.4-2,8.9-1.9,12.3,0c3.4,2,3.4,5.1,0,7.1C172,237.4,166.5,237.4,163.1,235.5z"/>
	</g>
</g>
<g>
	<g class="st17">
		<g>
			<path class="st18" d="M-499.3-283.5c-4.2,30.2,24.2,59,69.5,67.6c34.2,6.5,69.3-0.1,93.2-15.4l22.2,14.8
				c-0.4,1.8-0.7,3.5-0.8,5.3c-0.5,6.8,1.6,11.4,5.2,13.2l0,0l83.7,57.8c0.3,0.3,0.6,0.5,1,0.7l0.1,0.1l0,0
				c2.7,1.5,6.3,1.3,10.4-0.9c9.3-5.1,17.4-18.8,18.2-30.6c0.4-6.3-1.3-10.7-4.4-12.8l0,0l-84.3-58.1l0,0c-2.8-2.4-6.9-2.6-11.7,0
				c-2.2,1.2-4.3,2.9-6.3,5l-15.3-10.2c3.3-4,6-8.4,7.9-13c3.4-7.9,4.4-15.9,3.3-23.6c4.2-30.2-24.2-59-69.5-67.6
				c-51.2-9.8-104.6,10-119.2,44.2C-499.4-299.2-500.4-291.2-499.3-283.5z M-353-254.5c1.7-1.1,3.4-2.2,4.9-3.4
				C-349.6-256.6-351.3-255.5-353-254.5z M-467.8-268.6c-1-1.4-2-2.8-2.8-4.3c-1.2-2.2-2.3-4.4-3-6.7c0.8,2.3,1.8,4.5,3,6.7
				C-469.7-271.4-468.8-270-467.8-268.6z M-361.2-250.1c-1.9,0.9-3.9,1.7-5.9,2.5c-1.8,0.7-3.7,1.3-5.6,1.9c1.9-0.6,3.8-1.2,5.6-1.9
				C-365.1-248.4-363.1-249.2-361.2-250.1z M-390.2-242.2c-3.5,0.4-7,0.6-10.6,0.7C-397.2-241.6-393.6-241.8-390.2-242.2z
				 M-408-241.7c-4.8-0.2-9.7-0.8-14.5-1.7c-12.1-2.3-22.6-6.5-31-12c8.4,5.5,18.9,9.7,31,12C-417.7-242.5-412.8-241.9-408-241.7z
				 M-458.2-258.8c-1.5-1.2-2.9-2.4-4.2-3.7C-461.1-261.3-459.7-260-458.2-258.8z"/>
			<g>
				<path class="st8" d="M-412.8-228c51.2,9.8,104.6-10,119.2-44.2c14.6-34.1-15-69.7-66.2-79.5c-51.2-9.8-104.6,10-119.2,44.2
					C-493.6-273.4-464-237.8-412.8-228z M-405.5-243.8c-38.7-7.4-61.1-34.3-50-60.1c11.1-25.8,51.4-40.7,90-33.4
					c38.7,7.4,61.1,34.3,50,60.1C-326.5-251.4-366.8-236.5-405.5-243.8z"/>
				<polygon class="st19" points="-265.3,-207.3 -244.5,-221.2 -316,-268.9 -336.8,-255 				"/>
				<path class="st20" d="M-412.8-239.7c51.2,9.8,104.6-10,119.2-44.2c14.6-34.1-15-69.7-66.2-79.5c-51.2-9.8-104.6,10-119.2,44.2
					C-493.6-285.1-464-249.5-412.8-239.7z M-405.5-255.6c-38.7-7.4-61.1-34.3-50-60.1c11.1-25.8,51.4-40.7,90-33.4
					c38.7,7.4,61.1,34.3,50,60.1C-326.5-263.1-366.8-248.2-405.5-255.6z"/>
				<g>
					
						<ellipse transform="matrix(0.4629 -0.8864 0.8864 0.4629 52.4432 -374.2318)" class="st21" cx="-282.6" cy="-230.4" rx="25.3" ry="13.6"/>
					<polygon class="st21" points="-185.2,-193.6 -269.4,-251.8 -294.2,-207.9 -209.4,-149.4 					"/>
					<path class="st8" d="M-214.3-162.4c-0.8,11.8,6,17.2,15.3,12.1c9.3-5.1,17.4-18.8,18.2-30.6s-6-17.2-15.3-12.1
						C-205.3-187.9-213.5-174.2-214.3-162.4z"/>
				</g>
			</g>
			<path class="st1" d="M-400.1-314.6l54.3,6.1c2.8,0.3,5.3-2,5.5-5.3l0,0c0.3-3.2-1.8-6.1-4.6-6.4l-54.3-6.1
				c-2.8-0.3-5.3,2-5.5,5.3l0,0C-405-317.8-402.9-314.9-400.1-314.6z"/>
			<path class="st1" d="M-400.6-296.7l54.3,6.1c2.8,0.3,5.3-2,5.5-5.3l0,0c0.3-3.2-1.8-6.1-4.6-6.4l-54.3-6.1
				c-2.8-0.3-5.3,2-5.5,5.3l0,0C-405.4-299.9-403.4-297-400.6-296.7z"/>
		</g>
		<path class="st18" d="M-382.2-98.8l1.8,1.2c3.6,2.4,9.3,2.4,12.9,0h0c3.2-2.1,8.6-0.6,8.5,2.3l0,0c0,3.4,4.1,6.1,9.1,6.1l2.6,0
			c5,0,9.2-2.7,9.2-6.1c0-3,5.4-4.5,8.6-2.4c3.6,2.4,9.3,2.4,12.9,0l1.8-1.2c3.6-2.4,3.6-6.3,0-8.6l0,0c-3.1-2.1-0.9-5.7,3.6-5.7h0
			c5.1,0,9.2-2.7,9.2-6.1l0-1.7c0-3.4-4.1-6.1-9.1-6.1l0,0c-4.5,0-6.7-3.6-3.5-5.7c3.6-2.4,3.6-6.3,0-8.6l-1.8-1.2
			c-3.6-2.4-9.3-2.4-12.9,0h0c-3.2,2.1-8.6,0.6-8.5-2.3l0,0c0-3.4-4.1-6.1-9.1-6.1l-2.6,0c-5.1,0-9.2,2.7-9.2,6.1v0
			c0,3-5.4,4.5-8.6,2.4l0,0c-3.6-2.4-9.3-2.4-12.9,0l-1.8,1.2c-3.6,2.4-3.6,6.3,0,8.6h0c3.1,2.1,0.9,5.7-3.6,5.7l0,0
			c-5.1,0-9.2,2.7-9.2,6.1l0,1.7c0,3.4,4.1,6.1,9.1,6.1l0,0c4.5,0,6.7,3.6,3.5,5.7l0,0C-385.8-105-385.8-101.2-382.2-98.8z
			 M-364.5-109.4c-8.8-5.9-8.8-15.5,0.1-21.4c8.9-5.9,23.3-6,32.1-0.1c8.8,5.9,8.8,15.5-0.1,21.4
			C-341.3-103.6-355.6-103.5-364.5-109.4z"/>
		<path class="st18" d="M-293.4-77.1l1.2,0.8c2.4,1.6,6.2,1.6,8.6,0h0c2.1-1.4,5.7-0.4,5.7,1.6l0,0c0,2.2,2.7,4.1,6.1,4.1l1.7,0
			c3.4,0,6.1-1.8,6.1-4.1c0-2,3.6-3,5.7-1.6c2.4,1.6,6.2,1.6,8.6,0l1.2-0.8c2.4-1.6,2.4-4.2,0-5.8l0,0c-2.1-1.4-0.6-3.8,2.4-3.8h0
			c3.4,0,6.1-1.8,6.1-4.1l0-1.2c0-2.2-2.7-4.1-6.1-4.1l0,0c-3,0-4.5-2.4-2.3-3.8c2.4-1.6,2.4-4.2,0-5.8l-1.2-0.8
			c-2.4-1.6-6.2-1.6-8.6,0l0,0c-2.1,1.4-5.7,0.4-5.7-1.6l0,0c0-2.2-2.7-4.1-6.1-4.1l-1.7,0c-3.4,0-6.1,1.8-6.1,4.1v0
			c0,2-3.6,3-5.7,1.6h0c-2.4-1.6-6.2-1.6-8.6,0l-1.2,0.8c-2.4,1.6-2.4,4.2,0,5.8l0,0c2.1,1.4,0.6,3.8-2.4,3.8l0,0
			c-3.4,0-6.1,1.8-6.1,4.1l0,1.2c0,2.2,2.7,4.1,6.1,4.1l0,0c3,0,4.5,2.4,2.3,3.8l0,0C-295.7-81.2-295.8-78.7-293.4-77.1z
			 M-281.5-84.2c-5.9-3.9-5.9-10.3,0.1-14.3c5.9-4,15.5-4,21.4,0c5.9,3.9,5.9,10.3-0.1,14.3C-266.1-80.3-275.6-80.2-281.5-84.2z"/>
		<g>
			<path class="st19" d="M-371.4-101.7l1.8,1.2c3.6,2.4,9.3,2.4,12.9,0l0,0c3.2-2.1,8.6-0.6,8.5,2.3l0,0c0,3.4,4.1,6.1,9.1,6.1
				l2.6,0c5.1,0,9.2-2.7,9.2-6.1c0-3,5.4-4.5,8.6-2.4c3.6,2.4,9.3,2.4,12.9,0l1.8-1.2c3.6-2.4,3.6-6.3,0-8.6v0
				c-3.1-2.1-0.9-5.7,3.6-5.7h0c5.1,0,9.2-2.7,9.2-6.1l0-1.7c0-3.4-4.1-6.1-9.1-6.1h0c-4.5,0-6.7-3.6-3.5-5.7c3.6-2.4,3.6-6.3,0-8.6
				l-1.8-1.2c-3.6-2.4-9.3-2.4-12.9,0l0,0c-3.2,2.1-8.6,0.6-8.5-2.3l0,0c0-3.4-4.1-6.1-9.1-6.1l-2.6,0c-5.1,0-9.2,2.7-9.2,6.1v0
				c0,3-5.4,4.5-8.6,2.4v0c-3.6-2.4-9.3-2.4-12.9,0l-1.8,1.2c-3.6,2.4-3.6,6.3,0,8.6l0,0c3.1,2.1,0.9,5.7-3.6,5.7l0,0
				c-5.1,0-9.2,2.7-9.2,6.1l0,1.7c0,3.4,4.1,6.1,9.1,6.1l0,0c4.5,0,6.7,3.6,3.5,5.7l0,0C-375-107.9-375-104.1-371.4-101.7z
				 M-353.7-112.3c-8.8-5.9-8.8-15.5,0.1-21.4c8.9-5.9,23.3-6,32.1-0.1c8.8,5.9,8.8,15.5-0.1,21.4
				C-330.5-106.5-344.8-106.4-353.7-112.3z"/>
			<path class="st8" d="M-371.4-109.7l1.8,1.2c3.6,2.4,9.3,2.4,12.9,0l0,0c3.2-2.1,8.6-0.6,8.5,2.3v0c0,3.4,4.1,6.1,9.1,6.1l2.6,0
				c5.1,0,9.2-2.7,9.2-6.1c0-3,5.4-4.5,8.6-2.4c3.6,2.4,9.3,2.4,12.9,0l1.8-1.2c3.6-2.4,3.6-6.3,0-8.6l0,0c-3.1-2.1-0.9-5.7,3.6-5.7
				h0c5.1,0,9.2-2.7,9.2-6.1l0-1.7c0-3.4-4.1-6.1-9.1-6.1h0c-4.5,0-6.7-3.6-3.5-5.7c3.6-2.4,3.6-6.3,0-8.6l-1.8-1.2
				c-3.6-2.4-9.3-2.4-12.9,0l0,0c-3.2,2.1-8.6,0.6-8.5-2.3l0,0c0-3.4-4.1-6.1-9.1-6.1l-2.6,0c-5.1,0-9.2,2.7-9.2,6.1v0
				c0,3-5.4,4.5-8.6,2.4v0c-3.6-2.4-9.3-2.4-12.9,0l-1.8,1.2c-3.6,2.4-3.6,6.3,0,8.6l0,0c3.1,2.1,0.9,5.7-3.6,5.7l0,0
				c-5.1,0-9.2,2.7-9.2,6.1l0,1.7c0,3.4,4.1,6.1,9.1,6.1l0,0c4.5,0,6.7,3.6,3.5,5.7l0,0C-375-116-375-112.1-371.4-109.7z
				 M-353.7-120.4c-8.8-5.9-8.8-15.5,0.1-21.4c8.9-5.9,23.3-6,32.1-0.1c8.8,5.9,8.8,15.5-0.1,21.4S-344.8-114.5-353.7-120.4z"/>
		</g>
		<g>
			<path class="st19" d="M-284.9-81.2l1.2,0.8c2.3,1.5,6.1,1.5,8.4,0l0,0c2.1-1.4,5.5-0.4,5.5,1.5l0,0c0,2.2,2.6,3.9,5.9,3.9l1.7,0
				c3.3,0,5.9-1.8,5.9-4c0-1.9,3.5-2.9,5.6-1.5c2.3,1.5,6.1,1.5,8.4,0l1.2-0.8c2.3-1.5,2.3-4.1,0-5.6h0c-2-1.4-0.6-3.7,2.3-3.7h0
				c3.3,0,5.9-1.8,5.9-4l0-1.1c0-2.2-2.6-3.9-5.9-3.9l0,0c-2.9,0-4.3-2.3-2.3-3.7c2.3-1.5,2.3-4.1,0-5.6l-1.2-0.8
				c-2.3-1.5-6.1-1.5-8.4,0l0,0c-2.1,1.4-5.5,0.4-5.5-1.5l0,0c0-2.2-2.6-3.9-5.9-3.9l-1.7,0c-3.3,0-5.9,1.8-5.9,4l0,0
				c0,1.9-3.5,2.9-5.6,1.5h0c-2.3-1.5-6.1-1.5-8.4,0l-1.2,0.8c-2.3,1.5-2.3,4.1,0,5.6h0c2,1.4,0.6,3.7-2.3,3.7l0,0
				c-3.3,0-5.9,1.8-5.9,4l0,1.1c0,2.2,2.6,3.9,5.9,3.9h0c2.9,0,4.3,2.3,2.3,3.7l0,0C-287.2-85.2-287.2-82.7-284.9-81.2z M-273.4-88
				c-5.7-3.8-5.7-10,0.1-13.9c5.8-3.8,15.1-3.9,20.8,0c5.7,3.8,5.7,10-0.1,13.9C-258.3-84.2-267.6-84.2-273.4-88z"/>
			<path class="st8" d="M-284.9-86.4l1.2,0.8c2.3,1.5,6.1,1.5,8.4,0h0c2.1-1.4,5.5-0.4,5.5,1.5v0c0,2.2,2.6,3.9,5.9,3.9l1.7,0
				c3.3,0,5.9-1.8,5.9-4c0-1.9,3.5-2.9,5.6-1.5c2.3,1.5,6.1,1.5,8.4,0l1.2-0.8c2.3-1.5,2.3-4.1,0-5.6h0c-2-1.4-0.6-3.7,2.3-3.7h0
				c3.3,0,5.9-1.8,5.9-4l0-1.1c0-2.2-2.6-3.9-5.9-3.9l0,0c-2.9,0-4.3-2.3-2.3-3.7c2.3-1.5,2.3-4.1,0-5.6l-1.2-0.8
				c-2.3-1.5-6.1-1.5-8.4,0l0,0c-2.1,1.4-5.5,0.4-5.5-1.5l0,0c0-2.2-2.6-3.9-5.9-3.9l-1.7,0c-3.3,0-5.9,1.8-5.9,4v0
				c0,1.9-3.5,2.9-5.6,1.5l0,0c-2.3-1.5-6.1-1.5-8.4,0l-1.2,0.8c-2.3,1.5-2.3,4.1,0,5.6h0c2,1.4,0.6,3.7-2.3,3.7v0
				c-3.3,0-5.9,1.8-5.9,4l0,1.1c0,2.2,2.6,3.9,5.9,3.9h0c2.9,0,4.3,2.3,2.3,3.7l0,0C-287.2-90.4-287.2-87.9-284.9-86.4z
				 M-273.4-93.3c-5.7-3.8-5.7-10,0.1-13.9c5.8-3.8,15.1-3.9,20.8,0c5.7,3.8,5.7,10-0.1,13.9C-258.3-89.5-267.6-89.4-273.4-93.3z"/>
		</g>
	</g>
	<path class="st22" d="M445-358c0,0.8,0.7,1.1,1.6,0.6c0.9-0.5,1.6-1.5,1.6-2.4c0-0.8-0.7-1.1-1.6-0.6S445-358.8,445-358z"/>
	<g class="st17">
		<path class="st23" d="M487.4-361.3l48.4-25.8c4.1-2.2,7.5-8.1,7.5-13.2v-48.6c0-5.1-3.4-7.4-7.5-5.2l-48.4,25.8
			c-4.1,2.2-7.5,8.1-7.5,13.2v48.6C479.9-361.4,483.3-359.1,487.4-361.3z"/>
		<path class="st23" d="M405.3-309.2l48.4-25.8c4.1-2.2,7.5-8.1,7.5-13.2v-48.6c0-5.1-3.4-7.4-7.5-5.2l-48.4,25.8
			c-4.1,2.2-7.5,8.1-7.5,13.2v48.6C397.8-309.4,401.2-307,405.3-309.2z"/>
		<path class="st23" d="M407.4-209.8l48.4-25.8c4.1-2.2,7.5-8.1,7.5-13.2v-48.6c0-5.1-3.4-7.4-7.5-5.2l-48.4,25.8
			c-4.1,2.2-7.5,8.1-7.5,13.2v48.6C399.9-209.9,403.2-207.6,407.4-209.8z"/>
		<path class="st23" d="M532.2-82.5L728.9-190l-5.4-1.2l-113.1-61.4L423-152.7c-4.4,2.3-4.4,8.1-0.1,10.5L532.2-82.5z"/>
		<path class="st2" d="M422.3-145.3l-0.5-0.1c-1.5-0.2-2.6-1.5-2.4-2.9l11.1-79.8c0.2-1.4,1.6-2.4,3.2-2.3l0.5,0.1
			c1.5,0.2,2.6,1.5,2.4,2.9l-11.1,79.8C425.3-146.1,423.9-145.1,422.3-145.3z"/>
		<polygon class="st6" points="427.7,-208 425.5,-192.6 431.3,-189.6 433.5,-204.9 		"/>
		<path class="st2" d="M532.3-83.6L532.3-83.6c1.7-0.1,2.9-1.5,2.8-3.1l-12-128.7c-0.1-1.6-1.6-2.7-3.3-2.6l0,0
			c-1.7,0.1-2.9,1.5-2.8,3.1l12,128.7C529.2-84.7,530.6-83.5,532.3-83.6z"/>
		<polygon class="st6" points="523.1,-150.8 528.9,-154.5 527.2,-169.9 521,-169.1 		"/>
		<path class="st2" d="M721.6-187.7l0.7-0.1c1.2-0.2,2-1.2,1.8-2.3L708.6-273c-0.2-1.1-1.3-1.8-2.5-1.6l-0.7,0.1
			c-1.2,0.2-2,1.2-1.8,2.3l15.5,82.8C719.3-188.3,720.4-187.5,721.6-187.7z"/>
		<g>
			
				<rect x="705.7" y="-282.3" transform="matrix(-1 -4.509383e-11 4.509383e-11 -1 1427.6541 -555.8262)" class="st13" width="16.2" height="8.7"/>
			
				<rect x="410.9" y="-226.7" transform="matrix(-1 -4.486912e-11 4.486912e-11 -1 837.9899 -444.7)" class="st13" width="16.2" height="8.7"/>
			<path class="st24" d="M519.6-163.9l200.3-106.7c3.1-1.7,2.7-4.6-0.9-6.5l-93.5-49.8c-3.6-1.9-9.1-2.1-12.2-0.5L413-220.7
				c-3.1,1.7-2.7,4.6,0.9,6.5l93.5,49.8C511-162.5,516.4-162.3,519.6-163.9z"/>
			<path class="st25" d="M519.6-172.3L719.9-279c3.1-1.7,2.7-4.6-0.9-6.5l-93.5-49.8c-3.6-1.9-9.1-2.1-12.2-0.5L413-229
				c-3.1,1.7-2.7,4.6,0.9,6.5l93.5,49.8C511-170.8,516.4-170.6,519.6-172.3z"/>
		</g>
		<path class="st8" d="M490.5-307c0-1.1,0.5-2.3,1.2-3.5c0-0.1,0.1-0.1,0.1-0.2c0-0.1,0.1-0.1,0.1-0.2c0.7-1.2,1.7-2.1,2.8-2.7
			l71.6-37.8l70.9-37.5l0,0l0.7-0.4c1.1-0.6,2-0.6,2.8-0.2c0,0,0.1,0,0.1,0.1c0,0,0.1,0,0.1,0.1c0.8,0.4,1.2,1.1,1.2,2.2l0,0.7l0,0
			l0.5,66.2c0,2.8-1.9,6-4.2,7.3l-143.1,75.6c-2.4,1.2-4.3,0-4.3-2.7l-0.4-58.8l0,0L490.5-307z"/>
		<polygon class="st23" points="746.1,-90.4 674.5,-129.4 600.6,-89 674.5,-51.4 		"/>
		<path class="st2" d="M587.7-112.5l18.9,3.5l2.5,6c0.6,4.3,0.6,6.6-2.5,8.9c-2.6,1.9-8,0.4-10.7-0.8l-12.1-6.7
			c-9-4.6-8.3-7.9-7.3-10.7l0,0C577.8-115.3,581.9-114.6,587.7-112.5z"/>
		<path class="st2" d="M623.5-127.6l17.2,3.2l2.3,5.5c0.6,3.9,0.5,6-2.3,8.1c-2.4,1.7-7.2,0.4-9.8-0.7l-11-6.1
			c-8.2-4.2-7.6-7.2-6.7-9.8l0,0C614.5-130.1,618.3-129.5,623.5-127.6z"/>
		<g>
			<path class="st8" d="M495.3-248.8l143.1-75.6c2.4-1.2,4.3-4.5,4.2-7.3l-0.5-66.2c0-2.8-2-4-4.3-2.7L494.8-325
				c-2.4,1.2-4.3,4.5-4.2,7.3l0.5,66.2C491-248.8,492.9-247.6,495.3-248.8z"/>
			<path class="st2" d="M490.6-310.3l-0.1-8.1c0-2.4,2.2-5.5,4.9-6.9l141.7-74.9c2.7-1.5,5-0.7,5,1.7l0.1,8.1L490.6-310.3z"/>
			<path class="st26" d="M630.8-390c0,1.1,1,1.4,2.3,0.8c1.2-0.7,2.2-2.1,2.2-3.1c0-1.1-1-1.4-2.3-0.8
				C631.8-392.5,630.8-391.1,630.8-390z"/>
			<path class="st27" d="M621.8-385.2c0,1.1,1,1.4,2.3,0.8c1.2-0.7,2.2-2.1,2.2-3.1c0-1.1-1-1.4-2.3-0.8
				C622.7-387.7,621.7-386.3,621.8-385.2z"/>
			<path class="st28" d="M612.7-380.4c0,1.1,1,1.4,2.3,0.8c1.2-0.7,2.2-2.1,2.2-3.1c0-1.1-1-1.4-2.3-0.8
				C613.7-382.9,612.7-381.5,612.7-380.4z"/>
		</g>
		<path class="st29" d="M598.3-362l29.8-15.8c1.5-0.8,2.8,0,2.8,1.8l0.3,46.8c0,1.8-1.2,3.9-2.7,4.7l-29.8,15.8
			c-1.5,0.8-2.8,0-2.8-1.8l-0.3-46.8C595.6-359.1,596.8-361.2,598.3-362z"/>
		<g>
			<path class="st1" d="M604.9-306.5l29.8-15.8c1.5-0.8,2.7-2.9,2.7-4.7l-0.3-46.8c0-1.8-1.3-2.6-2.8-1.8l-29.8,15.8
				c-1.5,0.8-2.7,2.9-2.7,4.7l0.3,46.8C602.1-306.5,603.3-305.7,604.9-306.5z"/>
			<path class="st27" d="M607.9-349.3l23.2-12.3c1.1-0.6,2-2.1,2-3.4l0,0c0-1.3-0.9-1.9-2-1.3L607.9-354c-1.1,0.6-2,2.1-2,3.4v0
				C605.9-349.3,606.8-348.8,607.9-349.3z"/>
			<polygon class="st30" points="606,-340.2 632.4,-354.1 632.4,-357.8 605.9,-343.9 			"/>
			<polygon class="st30" points="606,-331.7 632.4,-345.7 632.4,-349.4 606,-335.4 			"/>
			<polygon class="st30" points="606.1,-323.2 632.5,-337.2 632.5,-340.9 606.1,-326.9 			"/>
			<polygon class="st30" points="619.7,-322.4 632.6,-329.2 632.5,-332.9 619.7,-326.1 			"/>
		</g>
		<g>
			<path class="st1" d="M505.8-260.9l80.5-42.6c1.5-0.8,2.7-2.9,2.7-4.7l-0.3-46.8c0-1.8-1.3-2.6-2.8-1.8L505.4-314
				c-1.5,0.8-2.7,2.9-2.7,4.7l0.3,46.8C503-260.8,504.3-260.1,505.8-260.9z"/>
			<g>
				<path class="st27" d="M509.9-304.2l71.7-37.9c1.1-0.6,2-2.1,2-3.4l0,0c0-1.3-0.9-1.9-2-1.3l-71.7,37.9c-1.1,0.6-2,2.1-2,3.4l0,0
					C507.9-304.2,508.8-303.7,509.9-304.2z"/>
				<path class="st30" d="M510.5-296.4l28-14.8c0.9-0.5,1.6-1.7,1.6-2.7l0,0c0-1-0.7-1.5-1.6-1l-28,14.8c-0.9,0.5-1.6,1.7-1.6,2.7
					l0,0C508.9-296.4,509.6-296,510.5-296.4z"/>
				<path class="st26" d="M553-318.9l28-14.8c0.9-0.5,1.6-1.7,1.6-2.7l0,0c0-1-0.7-1.5-1.6-1l-28,14.8c-0.9,0.5-1.6,1.7-1.6,2.7l0,0
					C551.4-318.9,552.2-318.4,553-318.9z"/>
				<polygon class="st30" points="509,-287.1 540.1,-303.6 540.1,-307.3 508.9,-290.8 				"/>
				<polygon class="st30" points="551.5,-309.6 582.6,-326.1 582.6,-329.7 551.5,-313.3 				"/>
				<polygon class="st30" points="509,-278.7 540.2,-295.1 540.1,-298.8 509,-282.3 				"/>
				<polygon class="st30" points="551.6,-301.1 582.7,-317.6 582.7,-321.3 551.5,-304.8 				"/>
				<polygon class="st30" points="569.9,-302.8 582.7,-309.6 582.7,-313.3 569.9,-306.5 				"/>
				<polygon class="st30" points="527.4,-280.3 540.2,-287.1 540.2,-290.8 527.4,-284 				"/>
			</g>
		</g>
		<path class="st8" d="M626.1-140.9c4.1,3,13,11.5,15.8,7.3c0.2,2.2,0.3,4.4,0.4,6.7c0.3,9-14.9,9.8-15.2,0.8
			C627.1-127.9,626.3-139.1,626.1-140.9z"/>
		<path class="st8" d="M652.2-159.5c-5-3.3-10.3-6.5-16.2-8.2c-2.6-0.8-4.1-1.1-6.3-1.2c-1,0-2,0-3,0c-2.2,0.1,0.7-0.3-1.2,0.2
			c-0.4,0.1-3.6,1.2-1.9,0.5c-0.8,0.3-1.5,0.7-2.2,1.2c-2.1,1.2,1-1-0.8,0.6c-0.6,0.5-1.2,1.1-1.8,1.7c-0.7,0.8-0.8,0.8-0.2,0.1
			c-0.3,0.4-0.7,0.9-1,1.4c-0.5,0.7-0.9,1.4-1.3,2.2c0,0-1.2,2.4-0.6,1.1c-0.4,1-0.8,1.9-1.1,2.9c-1.9,6-2.4,12.2-3.4,19.3
			c-1.1,7.7-2.6,17.7-2,26.3c0.3,4.6-4.5,8.6-9.3,8.6c-5.3,0-7.6-3.9-7.9-8.5c-0.7-10.8-0.2-21.8,1.4-32.4c0.3-2.2,0.7-4.4,1-6.5
			c0.1-0.7,0.2-1.5,0.4-2.2c0.3-1.7-0.4,2.1-0.1,0.9c1.2-5.7,1.9-10.8,4.5-16.1c2.4-4.9,34.9-7.5,27-10.9c-11.1-4.8,0.4-11,4.9-11.8
			c14.4-2.5,29.4,6.8,40.8,14.2c4.1,2.7-4.2,9.6-6.9,13.8C662.6-158.8,656.3-156.8,652.2-159.5L652.2-159.5z"/>
		<path class="st24" d="M555-238.5l68.8-36.7c0.4-0.2,0.9-0.2,1.3,0l20.9,11.4c0.8,0.5,0.8,1.6,0,2l-68.6,36.5
			c-0.4,0.2-0.9,0.2-1.3,0L555-236.5C554.2-237,554.2-238.1,555-238.5z"/>
		<path class="st1" d="M577.2-228.1l68.6-36.5c0.8-0.4,0.8-1.6,0-2L624.9-278c-0.4-0.2-0.9-0.2-1.3,0l-68.8,36.7
			c-0.8,0.4-0.8,1.6,0,2l21.1,11.3C576.4-227.9,576.9-227.9,577.2-228.1z"/>
		<path class="st24" d="M621.5-272.3c0.1,0.1,0.3,0,0.5-0.1l4.6-2.5c0.2-0.1,0.2-0.2,0.1-0.3l-3.1-1.6c-0.1-0.1-0.3,0-0.5,0.1
			l-4.6,2.5c-0.2,0.1-0.2,0.2-0.1,0.3L621.5-272.3z"/>
		<path class="st24" d="M616.2-265c0.1,0.1,0.3,0,0.5-0.1l4.6-2.5c0.2-0.1,0.2-0.2,0.1-0.3l-3.1-1.6c-0.1-0.1-0.3,0-0.5,0.1
			l-4.6,2.5c-0.2,0.1-0.2,0.2-0.1,0.3L616.2-265z"/>
		<path class="st24" d="M618.9-261.9c0.1,0.1,0.3,0,0.5-0.1l4.6-2.5c0.2-0.1,0.2-0.2,0.1-0.3l-3.1-1.6c-0.1-0.1-0.3,0-0.5,0.1
			l-4.6,2.5c-0.2,0.1-0.2,0.2-0.1,0.3L618.9-261.9z"/>
		<path class="st24" d="M626.2-261.3c0.1,0.1,0.3,0,0.5-0.1l4.6-2.5c0.2-0.1,0.2-0.2,0.1-0.3l-3.1-1.6c-0.1-0.1-0.3,0-0.5,0.1
			l-4.6,2.5c-0.2,0.1-0.2,0.2-0.1,0.3L626.2-261.3z"/>
		<path class="st24" d="M631-258.8c0.1,0.1,0.4,0,0.6-0.1l6.1-3.2c0.2-0.1,0.3-0.3,0.2-0.3l-3.6-1.9c-0.1-0.1-0.4,0-0.6,0.1
			l-6.1,3.2c-0.2,0.1-0.3,0.3-0.2,0.3L631-258.8z"/>
		<path class="st24" d="M591.2-237.5c0.1,0,0.3,0,0.5-0.1l4.6-2.5c0.2-0.1,0.2-0.2,0.1-0.3l-1.3-0.7c-0.1,0-0.3,0-0.5,0.1l-4.6,2.5
			c-0.2,0.1-0.2,0.2-0.1,0.2L591.2-237.5z"/>
		<path class="st24" d="M585-234.2c0.1,0,0.3,0,0.5-0.1l4.6-2.5c0.2-0.1,0.2-0.2,0.1-0.3l-1.3-0.7c-0.1,0-0.3,0-0.5,0.1l-4.6,2.5
			c-0.2,0.1-0.2,0.2-0.1,0.2L585-234.2z"/>
		<path class="st24" d="M578.4-230.7c0.1,0,0.3,0,0.5-0.1l4.6-2.5c0.2-0.1,0.2-0.2,0.1-0.2l-1.3-0.7c-0.1,0-0.3,0-0.5,0.1l-4.6,2.5
			c-0.2,0.1-0.2,0.2-0.1,0.2L578.4-230.7z"/>
		<path class="st24" d="M582.5-235.5c0.1,0,0.3,0,0.5-0.1l4.6-2.5c0.2-0.1,0.2-0.2,0.1-0.2l-1.3-0.7c-0.1,0-0.3,0-0.5,0.1l-4.6,2.5
			c-0.2,0.1-0.2,0.2-0.1,0.2L582.5-235.5z"/>
		<path class="st24" d="M599.2-241.8c0.1,0.1,0.3,0,0.5-0.1l30.1-16c0.2-0.1,0.2-0.2,0.1-0.3l-3.6-1.9c-0.1-0.1-0.3,0-0.5,0.1
			l-30.1,16c-0.2,0.1-0.2,0.2-0.1,0.3L599.2-241.8z"/>
		<path class="st24" d="M602.2-244.3c0,0,0.1-0.1,0.3-0.1l24-12.8c0.1-0.1,0.2-0.1,0.2-0.1l-0.2-0.1c0,0-0.1,0.1-0.3,0.1l-24,12.8
			c-0.1,0.1-0.2,0.1-0.2,0.1L602.2-244.3z"/>
		<path class="st24" d="M619.9-257.9c0.1,0.1,0.3,0,0.5-0.1l4.6-2.5c0.2-0.1,0.2-0.2,0.1-0.3l-3.1-1.6c-0.1-0.1-0.3,0-0.5,0.1
			l-4.6,2.5c-0.2,0.1-0.2,0.2-0.1,0.3L619.9-257.9z"/>
		<path class="st24" d="M613.5-254.5c0.1,0.1,0.3,0,0.5-0.1l4.6-2.5c0.2-0.1,0.2-0.2,0.1-0.3l-3.1-1.6c-0.1-0.1-0.3,0-0.5,0.1
			l-4.6,2.5c-0.2,0.1-0.2,0.2-0.1,0.3L613.5-254.5z"/>
		<path class="st24" d="M607.2-251.1c0.1,0.1,0.3,0,0.5-0.1l4.6-2.5c0.2-0.1,0.2-0.2,0.1-0.3l-3.1-1.6c-0.1-0.1-0.3,0-0.5,0.1
			l-4.6,2.5c-0.2,0.1-0.2,0.2-0.1,0.3L607.2-251.1z"/>
		<path class="st24" d="M600.8-247.8c0.1,0.1,0.3,0,0.5-0.1l4.6-2.5c0.2-0.1,0.2-0.2,0.1-0.3l-3.1-1.6c-0.1-0.1-0.3,0-0.5,0.1
			l-4.6,2.5c-0.2,0.1-0.2,0.2-0.1,0.3L600.8-247.8z"/>
		<path class="st24" d="M594.4-244.4c0.1,0.1,0.3,0,0.5-0.1l4.6-2.5c0.2-0.1,0.2-0.2,0.1-0.3l-3.1-1.6c-0.1-0.1-0.3,0-0.5,0.1
			l-4.6,2.5c-0.2,0.1-0.2,0.2-0.1,0.3L594.4-244.4z"/>
		<path class="st24" d="M588-241c0.1,0.1,0.3,0,0.5-0.1l4.6-2.5c0.2-0.1,0.2-0.2,0.1-0.3l-3.1-1.6c-0.1-0.1-0.3,0-0.5,0.1l-4.6,2.5
			c-0.2,0.1-0.2,0.2-0.1,0.3L588-241z"/>
		<path class="st24" d="M573.7-233.3c0.1,0.1,0.3,0,0.5-0.1l12.6-6.7c0.2-0.1,0.2-0.2,0.1-0.3l-3.1-1.6c-0.1-0.1-0.3,0-0.5,0.1
			l-12.6,6.7c-0.2,0.1-0.2,0.2-0.1,0.3L573.7-233.3z"/>
		<path class="st24" d="M612.6-258.5c0.1,0.1,0.3,0,0.5-0.1l4.6-2.5c0.2-0.1,0.2-0.2,0.1-0.3l-3.1-1.6c-0.1-0.1-0.3,0-0.5,0.1
			l-4.6,2.5c-0.2,0.1-0.2,0.2-0.1,0.3L612.6-258.5z"/>
		<path class="st24" d="M606.2-255.1c0.1,0.1,0.3,0,0.5-0.1l4.6-2.5c0.2-0.1,0.2-0.2,0.1-0.3l-3.1-1.6c-0.1-0.1-0.3,0-0.5,0.1
			l-4.6,2.5c-0.2,0.1-0.2,0.2-0.1,0.3L606.2-255.1z"/>
		<path class="st24" d="M599.8-251.7c0.1,0.1,0.3,0,0.5-0.1l4.6-2.5c0.2-0.1,0.2-0.2,0.1-0.3l-3.1-1.6c-0.1-0.1-0.3,0-0.5,0.1
			l-4.6,2.5c-0.2,0.1-0.2,0.2-0.1,0.3L599.8-251.7z"/>
		<path class="st24" d="M593.4-248.3c0.1,0.1,0.3,0,0.5-0.1l4.6-2.5c0.2-0.1,0.2-0.2,0.1-0.3l-3.1-1.6c-0.1-0.1-0.3,0-0.5,0.1
			l-4.6,2.5c-0.2,0.1-0.2,0.2-0.1,0.3L593.4-248.3z"/>
		<path class="st24" d="M587.1-245c0.1,0.1,0.3,0,0.5-0.1l4.6-2.5c0.2-0.1,0.2-0.2,0.1-0.3l-3.1-1.6c-0.1-0.1-0.3,0-0.5,0.1
			l-4.6,2.5c-0.2,0.1-0.2,0.2-0.1,0.3L587.1-245z"/>
		<path class="st24" d="M580.7-241.6c0.1,0.1,0.3,0,0.5-0.1l4.6-2.5c0.2-0.1,0.2-0.2,0.1-0.3l-3.1-1.6c-0.1-0.1-0.3,0-0.5,0.1
			l-4.6,2.5c-0.2,0.1-0.2,0.2-0.1,0.3L580.7-241.6z"/>
		<path class="st24" d="M574.3-238.2c0.1,0.1,0.3,0,0.5-0.1l4.6-2.5c0.2-0.1,0.2-0.2,0.1-0.3l-3.1-1.6c-0.1-0.1-0.3,0-0.5,0.1
			l-4.6,2.5c-0.2,0.1-0.2,0.2-0.1,0.3L574.3-238.2z"/>
		<path class="st24" d="M609.8-261.6c0.1,0.1,0.3,0,0.5-0.1l4.6-2.5c0.2-0.1,0.2-0.2,0.1-0.3L612-266c-0.1-0.1-0.3,0-0.5,0.1
			l-4.6,2.5c-0.2,0.1-0.2,0.2-0.1,0.3L609.8-261.6z"/>
		<path class="st24" d="M603.5-258.2c0.1,0.1,0.3,0,0.5-0.1l4.6-2.5c0.2-0.1,0.2-0.2,0.1-0.3l-3.1-1.6c-0.1-0.1-0.3,0-0.5,0.1
			l-4.6,2.5c-0.2,0.1-0.2,0.2-0.1,0.3L603.5-258.2z"/>
		<path class="st24" d="M597.1-254.8c0.1,0.1,0.3,0,0.5-0.1l4.6-2.5c0.2-0.1,0.2-0.2,0.1-0.3l-3.1-1.6c-0.1-0.1-0.3,0-0.5,0.1
			l-4.6,2.5c-0.2,0.1-0.2,0.2-0.1,0.3L597.1-254.8z"/>
		<path class="st24" d="M590.7-251.4c0.1,0.1,0.3,0,0.5-0.1l4.6-2.5c0.2-0.1,0.2-0.2,0.1-0.3l-3.1-1.6c-0.1-0.1-0.3,0-0.5,0.1
			l-4.6,2.5c-0.2,0.1-0.2,0.2-0.1,0.3L590.7-251.4z"/>
		<path class="st24" d="M584.4-248c0.1,0.1,0.3,0,0.5-0.1l4.6-2.5c0.2-0.1,0.2-0.2,0.1-0.3l-3.1-1.6c-0.1-0.1-0.3,0-0.5,0.1
			l-4.6,2.5c-0.2,0.1-0.2,0.2-0.1,0.3L584.4-248z"/>
		<path class="st24" d="M578-244.6c0.1,0.1,0.3,0,0.5-0.1l4.6-2.5c0.2-0.1,0.2-0.2,0.1-0.3l-3.1-1.6c-0.1-0.1-0.3,0-0.5,0.1
			l-4.6,2.5c-0.2,0.1-0.2,0.2-0.1,0.3L578-244.6z"/>
		<path class="st24" d="M571.6-241.2c0.1,0.1,0.3,0,0.5-0.1l4.6-2.5c0.2-0.1,0.2-0.2,0.1-0.3l-3.1-1.6c-0.1-0.1-0.3,0-0.5,0.1
			l-4.6,2.5c-0.2,0.1-0.2,0.2-0.1,0.3L571.6-241.2z"/>
		<path class="st24" d="M622.5-268.3c0.1,0.1,0.3,0,0.5-0.1l7.8-4.2c0.2-0.1,0.2-0.2,0.1-0.3l-3.1-1.6c-0.1-0.1-0.3,0-0.5,0.1
			l-7.8,4.2c-0.2,0.1-0.2,0.2-0.1,0.3L622.5-268.3z"/>
		<path class="st24" d="M561-240.1c0.1,0.1,0.3,0,0.5-0.1l7.8-4.2c0.2-0.1,0.2-0.2,0.1-0.3l-3.1-1.6c-0.1-0.1-0.3,0-0.5,0.1
			l-7.8,4.2c-0.2,0.1-0.2,0.2-0.1,0.3L561-240.1z"/>
		<path class="st24" d="M625.3-265.3c0.1,0.1,0.3,0,0.5-0.1l9.4-5c0.2-0.1,0.2-0.2,0.1-0.3l-3.1-1.6c-0.1-0.1-0.3,0-0.5,0.1l-9.4,5
			c-0.2,0.1-0.2,0.2-0.1,0.3L625.3-265.3z"/>
		<path class="st24" d="M632.6-264.7c0.1,0.1,0.3,0,0.5-0.1l6.2-3.3c0.2-0.1,0.2-0.2,0.1-0.3l-3.1-1.6c-0.1-0.1-0.3,0-0.5,0.1
			l-6.2,3.3c-0.2,0.1-0.2,0.2-0.1,0.3L632.6-264.7z"/>
		<path class="st24" d="M615.2-268.9c0.1,0.1,0.3,0,0.5-0.1l4.6-2.5c0.2-0.1,0.2-0.2,0.1-0.3l-3.1-1.6c-0.1-0.1-0.3,0-0.5,0.1
			l-4.6,2.5c-0.2,0.1-0.2,0.2-0.1,0.3L615.2-268.9z"/>
		<path class="st24" d="M608.8-265.5c0.1,0.1,0.3,0,0.5-0.1l4.6-2.5c0.2-0.1,0.2-0.2,0.1-0.3L611-270c-0.1-0.1-0.3,0-0.5,0.1
			l-4.6,2.5c-0.2,0.1-0.2,0.2-0.1,0.3L608.8-265.5z"/>
		<path class="st24" d="M602.5-262.2c0.1,0.1,0.3,0,0.5-0.1l4.6-2.5c0.2-0.1,0.2-0.2,0.1-0.3l-3.1-1.6c-0.1-0.1-0.3,0-0.5,0.1
			l-4.6,2.5c-0.2,0.1-0.2,0.2-0.1,0.3L602.5-262.2z"/>
		<path class="st24" d="M596.1-258.8c0.1,0.1,0.3,0,0.5-0.1l4.6-2.5c0.2-0.1,0.2-0.2,0.1-0.3l-3.1-1.6c-0.1-0.1-0.3,0-0.5,0.1
			l-4.6,2.5c-0.2,0.1-0.2,0.2-0.1,0.3L596.1-258.8z"/>
		<path class="st24" d="M589.7-255.4c0.1,0.1,0.3,0,0.5-0.1l4.6-2.5c0.2-0.1,0.2-0.2,0.1-0.3l-3.1-1.6c-0.1-0.1-0.3,0-0.5,0.1
			l-4.6,2.5c-0.2,0.1-0.2,0.2-0.1,0.3L589.7-255.4z"/>
		<path class="st24" d="M583.4-252c0.1,0.1,0.3,0,0.5-0.1l4.6-2.5c0.2-0.1,0.2-0.2,0.1-0.3l-3.1-1.6c-0.1-0.1-0.3,0-0.5,0.1
			l-4.6,2.5c-0.2,0.1-0.2,0.2-0.1,0.3L583.4-252z"/>
		<path class="st24" d="M577-248.6c0.1,0.1,0.3,0,0.5-0.1l4.6-2.5c0.2-0.1,0.2-0.2,0.1-0.3l-3.1-1.6c-0.1-0.1-0.3,0-0.5,0.1
			l-4.6,2.5c-0.2,0.1-0.2,0.2-0.1,0.3L577-248.6z"/>
		<path class="st24" d="M570.6-245.2c0.1,0.1,0.3,0,0.5-0.1l4.6-2.5c0.2-0.1,0.2-0.2,0.1-0.3l-3.1-1.6c-0.1-0.1-0.3,0-0.5,0.1
			l-4.6,2.5c-0.2,0.1-0.2,0.2-0.1,0.3L570.6-245.2z"/>
		<path class="st24" d="M566.9-242.2c0.1,0,0.2-0.1,0.3-0.1c0.1,0,0.2,0,0.2,0l3.1,1.6c0.1,0,0.1,0.1,0.1,0.1c0,0.1-0.1,0.1-0.2,0.1
			l-1.2,0.6l4,2.1c0.1,0,0.1,0.1,0.1,0.1c0,0.1-0.1,0.1-0.2,0.1l-3.1,1.7c-0.1,0-0.2,0.1-0.3,0.1c-0.1,0-0.2,0-0.2,0l-7.3-3.9
			c-0.1,0-0.1-0.1-0.1-0.1c0-0.1,0.1-0.1,0.2-0.1L566.9-242.2z"/>
		<path class="st24" d="M553.8-214.4l9.9,6.2c3.6,2.3,9.1,2,12.2-0.7v0c3.1-2.7,2.6-6.7-1-9L565-224c-3.6-2.3-9.1-2-12.2,0.7l0,0
			C549.7-220.7,550.2-216.7,553.8-214.4z"/>
		<path class="st2" d="M556.3-216.4l9.9,6.2c3.6,2.3,9.1,2,12.2-0.7h0c3.1-2.7,2.6-6.7-1-9l-9.9-6.2c-3.6-2.3-9.1-2-12.2,0.7h0
			C552.2-222.8,552.7-218.7,556.3-216.4z"/>
		<g>
			<g>
				<path class="st31" d="M558.1-224.6c0.9,0.2,1.7,0.6,2.4,1.1c0.7,0.6,1.7-0.4,1-1c-0.9-0.7-1.9-1.2-3-1.5
					C557.6-226.1,557.2-224.8,558.1-224.6L558.1-224.6z"/>
			</g>
		</g>
		<path class="st8" d="M648.8-147.4c-7.8-4.1-16.2-7.3-24.4-10.8c-6.9-3-12.2-3.3-19.2-4.5c-5.1-0.9-8-6.5-6.7-10.9
			c1.5-4.9,13-10.1,18.5-7.9c3.4,1.4,13.7,4.5,17.5,6.1c8.7,3.7,15.7,8.3,24,12.7C669.2-157.1,659.5-141.8,648.8-147.4L648.8-147.4z
			"/>
		<path class="st12" d="M689.8-223.4c-6.6,0.2-6.6-5.3-7.4-9.6c0,0.1-0.2-1.7-0.1-1.3c0.4,0.4,0.9,0.7,1.5,0.9
			c-1.8,0.1-3.5,0-5.2-0.2c-5.9-0.5-11.4-2.1-16.7-4.5c-7.4-3.3-17.1-13.3-25.6-12.5c-7.7,0.7-7.6-10.4,0-11.1
			c7.8-0.7,14.5,4.1,20.6,7.9c4.4,2.7,8.9,5.5,13.9,7.2c5.3,1.8,10.8,0.9,15.9,2.4c4.8,1.4,7.5,5.5,7.6,10.1c0,0.6,0.4,1.8,0.2,2.4
			c-0.5,1.1-7.1-0.2-6.8-2.5c0.1-0.7,3-3.1,3.6-3.6C693.9-240.8,698-223.6,689.8-223.4z"/>
		<path class="st2" d="M705.6-253.7c3.5,3.5,3.5,8.5,3.9,13.5c0.4,4.9-2.7,9.3-7.7,10.8L652-214c0,0-13.9-17.9,2.4-24.3
			c8.5-3.4,14.3-8,20.6-12.1C684.4-256.4,697.4-261.8,705.6-253.7z"/>
		<path class="st2" d="M715.5-165.9c3.7-1.2-2.4-48.9-6.7-80.9L649.9-219c4.2,20.7,2.9,36.8,2.1,57.9c-0.4,10.2,13.6,18,23.5,13.5
			L715.5-165.9z"/>
		<path class="st12" d="M650.1-217.4c-8.8,7.4-17.1,21.5-30.4,22.1c-15.8,0.7-29.8-11.6-44.4-15.3c-7.4-1.9-4.3-12.6,3.2-10.7
			c13,3.3,24.2,12.4,37.3,14.6c5.3,0.9,7.7-1.1,11.1-4.5c4.8-4.8,9.4-9.7,14.7-14.1C647.3-230,655.8-222.2,650.1-217.4L650.1-217.4z
			"/>
		<path class="st2" d="M661.3-222.5l-23,20.7c-7.5,5-17.3-7.6-11.5-12.3l22.4-21.6c3.7-2.9,8.7-2.9,11.6,0l0,0
			C663.8-232.5,664.8-226,661.3-222.5z"/>
		<path class="st12" d="M684.8-253l-7.8-17.7l-10.8,9.4l6.7,16.2C673.8-242.5,686.9-246.9,684.8-253z"/>
		<path class="st1" d="M662-242.4c14.7-2.7,25-0.7,27-14.3l0,0c-2.3-1.1-5.1-0.4-6.3,1.6c-2.2,3.5-7.4,5.9-13.5,5.4
			c-1.8-0.1-3.5,0.7-4.3,2.1L662-242.4z"/>
		<g>
			<path class="st32" d="M413.5-369.5l48.2-25.8c2-1.1,3.7-1.1,5.1-0.2l0,0l8.2,4.2c0,0-3.2,4.4-5.5,9.7v40.2c0,5.1-3.4,11-7.6,13.2
				l-39.3,20.9c-3.7,5.7-6.4,9.4-6.4,9.4l-7.8-4v0c-1.2-0.6-2.3-2.8-2.3-5.8v-48.6C406-361.4,409.3-367.3,413.5-369.5z"/>
			<path class="st8" d="M421.7-297.9l48.4-25.8c4.1-2.2,7.5-8.1,7.5-13.2v-48.6c0-5.1-3.4-7.4-7.5-5.2L421.7-365
				c-4.1,2.2-7.5,8.1-7.5,13.2v48.6C414.2-298.1,417.6-295.7,421.7-297.9z"/>
			<g>
				<g>
					<polygon class="st1" points="459.2,-335.3 472,-355.7 458,-363 455.3,-358.7 464.5,-353.8 454.5,-337.8 					"/>
				</g>
				<g>
					<polygon class="st1" points="433.8,-322.8 436.5,-327.2 427.4,-331.9 437.6,-348.2 432.9,-350.7 420,-330.1 					"/>
				</g>
				<g>
					<polygon class="st1" points="447.5,-325.3 452.8,-326.6 443.2,-359.3 438,-358 					"/>
				</g>
			</g>
		</g>
		<g>
			<path class="st2" d="M497.6-418.3l48.2-25.8c2-1.1,3.7-1.1,5.1-0.2l0,0l8.2,4.2c0,0-3.2,4.4-5.5,9.7v40.2c0,5.1-3.4,11-7.6,13.2
				L506.6-356c-3.7,5.7-6.4,9.4-6.4,9.4l-7.8-4v0c-1.2-0.6-2.3-2.8-2.3-5.8V-405C490.1-410.1,493.4-416,497.6-418.3z"/>
			<path class="st33" d="M505.8-346.7l48.4-25.8c4.1-2.2,7.5-8.1,7.5-13.2v-48.6c0-5.1-3.4-7.4-7.5-5.2l-48.4,25.8
				c-4.1,2.2-7.5,8.1-7.5,13.2v48.6C498.3-346.8,501.7-344.5,505.8-346.7z"/>
		</g>
		<g>
			<path class="st34" d="M417.8-276.3l47.7-25.4c2-1,3.8-1,5.1-0.2l0,0l7.7,4.2c0,0-3.5,4.4-5.8,9.5v39.6c0,5-3,10.9-7.1,13
				l-38.6,20.6c-3.6,5.6-4.9,9.8-4.9,9.8l-9.6-4.5c0,0-2.6-1.4-2.3-5.7v-47.9C410.2-268.3,413.7-274.1,417.8-276.3z"/>
			<path class="st27" d="M426.3-205.7l47.7-25.4c4.1-2.2,7.4-8,7.4-13v-47.9c0-5-3.3-7.3-7.4-5.2l-47.7,25.4c-4.1,2.2-7.4,8-7.4,13
				v47.9C418.9-205.9,422.2-203.6,426.3-205.7z"/>
			<g>
				<path class="st1" d="M445.2-228.7l-2.8,1.5c-3.9,2.1-5.6,1.4-5.6-3.6c0-3.3,0.4-5.3,0.4-8.2c0-1.6-0.9-2.9-3.8-1.4v-4
					c2.9-1.6,3.8-3.8,3.8-5.5c0-2.9-0.4-4.4-0.4-7.7c0-5,1.8-7.6,5.6-9.6l2.8-1.5v3.6l-0.8,0.4c-1.9,1-2.3,1.9-2.3,4.5
					c0,2.5,0.2,4.7,0.2,7.5c0,3.5-1.1,5.5-3.3,7.2v0.2c2.2-0.6,3.3,0.2,3.3,3.7c0,2.8-0.2,5.2-0.2,7.7c0,2.6,0.5,3,2.3,2l0.8-0.4
					V-228.7z"/>
			</g>
			<g>
				<path class="st1" d="M458.9-239.7l0.8-0.4c1.9-1,2.3-1.9,2.3-4.5c0-2.5-0.2-4.7-0.2-7.5c0-3.5,1.1-5.5,3.3-7.2v-0.2
					c-2.2,0.6-3.3-0.2-3.3-3.7c0-2.8,0.2-5.2,0.2-7.7c0-2.6-0.5-3-2.3-2l-0.8,0.4v-3.6l2.8-1.5c3.9-2.1,5.6-1.4,5.6,3.6
					c0,3.3-0.4,5.3-0.4,8.2c0,1.6,0.9,2.9,3.8,1.4v4c-2.9,1.6-3.8,3.8-3.8,5.5c0,2.9,0.4,4.4,0.4,7.7c0,5-1.8,7.6-5.6,9.6l-2.8,1.5
					V-239.7z"/>
			</g>
		</g>
		<g>
			<path class="st8" d="M584.6-389.6l46.2-24.6c2.6-1.4,4.7-5,4.7-8.2l-0.1-90c0-3.1-2.1-4.6-4.7-3.2l-46.2,24.6
				c-2.6,1.4-4.7,5-4.7,8.2l0.1,90C579.9-389.6,582-388.2,584.6-389.6z"/>
			<path class="st27" d="M615.4-484.2l9.9-5.3c2-1.1,3.7-3.9,3.6-6.4l0,0c0-2.5-1.6-3.6-3.7-2.5l-9.9,5.3c-2,1.1-3.7,3.9-3.6,6.4
				l0,0C611.8-484.3,613.4-483.2,615.4-484.2z"/>
			<path class="st1" d="M601.7-461.5l15-8c1.6-0.9,2.9-3.1,2.9-5.1l0,0c0-1.9-1.3-2.8-2.9-2l-15,8c-1.6,0.9-2.9,3.1-2.9,5.1l0,0
				C598.8-461.5,600.1-460.7,601.7-461.5z"/>
			<path class="st35" d="M589.2-438.7l27.5-14.7c1.6-0.9,2.9-3.1,2.9-5.1v0c0-1.9-1.3-2.8-2.9-2l-27.5,14.7
				c-1.6,0.9-2.9,3.1-2.9,5.1l0,0C586.3-438.7,587.6-437.8,589.2-438.7z"/>
			<path class="st1" d="M601.8-429.3l15-8c1.6-0.9,2.9-3.1,2.9-5.1l0,0c0-1.9-1.3-2.8-2.9-2l-15,8c-1.6,0.9-2.9,3.1-2.9,5.1l0,0
				C598.9-429.3,600.2-428.4,601.8-429.3z"/>
			<path class="st27" d="M614.7-420.9l10.3-5.5c1.6-0.9,2.9-3.1,2.9-5.1l0,0c0-1.9-1.3-2.8-2.9-2l-10.3,5.5
				c-1.6,0.9-2.9,3.1-2.9,5.1l0,0C611.8-421,613.1-420.1,614.7-420.9z"/>
		</g>
		<g>
			<g>
				<path class="st2" d="M603.8-86.5l-0.2,0c-1.6-0.2-2.6-1.6-2.4-3l11.1-69c0.2-1.4,1.7-2.4,3.2-2.2l0.2,0c1.6,0.2,2.6,1.6,2.4,3
					l-11.1,69C606.8-87.2,605.3-86.2,603.8-86.5z"/>
				<path class="st2" d="M744.2-81.9L744.2-81.9c1.6-0.2,2.6-1.6,2.4-3l-13.5-83.9c-0.2-1.4-1.7-2.4-3.3-2.2l0,0
					c-1.6,0.2-2.6,1.6-2.4,3l13.5,83.9C741.2-82.7,742.6-81.7,744.2-81.9z"/>
				<path class="st2" d="M678.1-46.3L678.1-46.3c1.7-0.2,2.8-1.7,2.6-3.2L665-147.4c-0.2-1.5-1.8-2.6-3.5-2.4l0,0
					c-1.7,0.2-2.8,1.7-2.6,3.2l15.7,97.9C674.9-47.1,676.4-46.1,678.1-46.3z"/>
				<path class="st32" d="M668.1-115.5l64.7-34.6c6.1-3.2,9.4-9.7,9.4-9.7c2.3-4.8-3.1-8.3-9.2-5.1l-59.3,32.2
					c-6.1,3.2-8.4,6.6-7.4,10.6C666.3-122,660.4-111.9,668.1-115.5z"/>
				<path class="st32" d="M611.7-141.2l45,25.4c7.3,4.1,12.9,2.2,12.5-4.3l-0.4-6.2c-0.4-6.5-6.7-15.1-14-19.3l-45-25.4
					c-7.3-4.1-12.9-2.2-12.5,4.3l0.4,6.2C598.1-153.9,604.4-145.3,611.7-141.2z"/>
			</g>
			<path class="st32" d="M742.1-160.7l11.3-65c1.9-9.6-5.9-12.8-16.9-6.9l-43.9,23.5c-7.9,4.2-15.4,12.2-18.8,19.8l-18.5,42.2
				c-5.3,12.1,6.2,24,17.3,17.9L742.1-160.7z"/>
		</g>
		<g>
			<path class="st36" d="M663.8-283l-0.1,1.7c0,0-0.2,5.3,5.4,2.5c5.6-2.7,5.4-9.3,5.4-9.3S670.2-288.4,663.8-283z"/>
			<path class="st37" d="M675.6-289.4c0,0-5.2-0.3-13.4,6.2l-0.2,2.1l0.1,0c0,0-0.3,6.2,7.1,2.6C676.4-282,675.6-289.4,675.6-289.4z
				 M669-279.4c-5.5,2.6-5.3-2-5.3-2l0.1-1.5c6.3-5,10.4-4.8,10.4-4.8S674.5-282,669-279.4z"/>
			<polygon class="st37" points="659.3,-280 663.7,-281.8 663.9,-284.1 659.5,-282.2 			"/>
			<path class="st37" d="M675.2-287.6l0.8-0.3c0.4-0.2,0.8-0.7,0.9-1.2l0,0c0.1-0.5-0.2-0.7-0.7-0.6l-0.8,0.3
				c-0.4,0.2-0.8,0.7-0.9,1.2l0,0C674.5-287.7,674.8-287.5,675.2-287.6z"/>
			<path class="st37" d="M647-275.8l0.8-0.3c0.4-0.2,0.8-0.7,0.9-1.2l0,0c0.1-0.5-0.2-0.7-0.7-0.6l-0.8,0.3
				c-0.4,0.2-0.8,0.7-0.9,1.2l0,0C646.3-275.8,646.6-275.6,647-275.8z"/>
			<g>
				<g>
					<path class="st2" d="M652.3-271.5c7.2-2.6,8.3-9.1,8.3-9.1l0.1,0l0.2-2.1c-7.5,0.1-13.3,5-13.3,5S645.1-268.8,652.3-271.5z
						 M648.8-277c0,0,4.6-3.9,10.3-3.9l-0.3,1.6c0,0-0.8,4.8-6.2,6.8C647.3-270.6,648.8-277,648.8-277z"/>
					<path class="st11" d="M657.8-278.1L657.8-278.1c0.2-0.2,0.2-0.5,0.1-0.6l-1.3-1.3c-0.1-0.1-0.3,0-0.5,0.2l0,0
						c-0.2,0.2-0.2,0.5-0.1,0.6l1.3,1.3C657.4-277.9,657.6-277.9,657.8-278.1z"/>
				</g>
			</g>
			<path class="st38" d="M673.4-285L673.4-285c0.2-0.2,0.2-0.5,0.1-0.6l-1.3-1.3c-0.1-0.1-0.3,0-0.5,0.2l0,0
				c-0.2,0.2-0.2,0.5-0.1,0.6l1.3,1.3C673-284.7,673.2-284.8,673.4-285z"/>
			<path class="st12" d="M676.2-294c0,0,11.1-7.1,11.2,10.2c0.1,12.1-7.9,22.5-18.6,27.2c-6.7,2.9-14.8-0.8-15.2-6.8
				c-1.6-8.8-1.6-17,1.5-24c-0.4-7.2,5-4.7,14.3-5.1L676.2-294z"/>
			<path class="st2" d="M682.6-260.3c0,0,12.8-4.4,11.6-21.1c-1.3-18-19.3-16.5-29.3-17.4c-4.4-0.4-7.5-1-12,2.8
				c-4.1,3.4-0.3,11,5.6,11.5c2.3,0.2,1.3,6,1.7,8c0.8,3.6,3.2,5.3,4.1,8.7c0.8,3.3,6.1,8.4,9.4,8.7
				C679.8-258.4,682.6-260.3,682.6-260.3z"/>
			<path class="st2" d="M647.3-275.2l16.6,1.5c0.6,0.1,1.1-0.4,1.2-0.9l0,0c0.1-0.5-0.4-1-1-1.1l-16.6-1.5c-0.6-0.1-1.1,0.4-1.2,0.9
				l0,0C646.3-275.8,646.7-275.3,647.3-275.2z"/>
			<path class="st2" d="M670.7-266.3c0.6,0.4,2,12.5-9,10.5c-11-2-8.8-12.1-8.8-12.1s8.7,2.1,11.1-7.9
				C666.5-285.7,670.7-266.3,670.7-266.3z"/>
			<path class="st12" d="M661.4-271.2c-0.3,2.9,1.3,5.3,3.5,5.5c0.2,0,0.5,0,0.7,0c1.9-0.3,3.5-2.3,3.8-4.8c0.3-2.9-1.3-5.3-3.5-5.5
				C663.6-276.3,661.6-274.1,661.4-271.2z"/>
		</g>
		<path class="st1" d="M508.3-382.3v1.4c0,2.7,2.1,3.8,4.6,2.4l0,0c2.3-1.2,3.4,1.1,1.8,3.6l0,0c-1.8,2.9-1.8,6,0,6.9l0.9,0.5
			c1.8,1,4.7-0.6,6.5-3.5c1.6-2.5,4.3-2.8,4.3-0.4c0,2.7,2.1,3.8,4.6,2.4l1.3-0.7c2.6-1.4,4.6-4.7,4.6-7.4l0,0c0-2.4,2.7-5,4.3-4.2
			l0,0c1.8,1,4.7-0.6,6.5-3.5l0.9-1.5c1.8-2.9,1.8-6,0-6.9l0,0c-1.6-0.8-0.5-4.3,1.8-5.5c2.6-1.4,4.6-4.7,4.6-7.4v-1.4
			c0-2.7-2.1-3.8-4.6-2.4l0,0c-2.3,1.2-3.4-1.1-1.8-3.6l0,0c1.8-2.9,1.8-6,0-6.9l-0.9-0.5c-1.8-1-4.7,0.6-6.5,3.5v0
			c-1.6,2.5-4.3,2.8-4.3,0.4l0,0c0-2.7-2.1-3.8-4.6-2.4l-1.3,0.7c-2.6,1.4-4.6,4.7-4.6,7.4l0,0c0,2.4-2.7,5-4.3,4.2h0
			c-1.8-1-4.7,0.6-6.5,3.5l-0.9,1.5c-1.8,2.9-1.8,6,0,6.9l0,0c1.6,0.8,0.5,4.3-1.8,5.5l0,0C510.4-388.3,508.3-385,508.3-382.3z
			 M520.3-388c0-6.7,5.1-14.9,11.5-18.3c6.3-3.4,11.5-0.7,11.5,6c0,6.7-5.1,14.9-11.5,18.3C525.5-378.6,520.3-381.3,520.3-388z"/>
	</g>
	<path class="st1" d="M98.9-382.6l-30.8-17.8c-0.7-0.4-1.3-1.5-1.3-2.5v0c0-1,0.6-1.4,1.3-1l30.8,17.8c0.7,0.4,1.3,1.5,1.3,2.5l0,0
		C100.2-382.6,99.6-382.2,98.9-382.6z"/>
	<g id="image">
		<g>
			<polygon class="st16" points="290,-535.1 78.9,-579.9 78.9,-278.8 290,-234.1 			"/>
			<polygon class="st0" points="265.1,-518.9 54,-563.7 54,-262.6 265.1,-217.9 			"/>
			<g>
				<path class="st1" d="M160.4-263.1l77.8,16.5c4.3,0.9,9.7-4.2,9.7-9.2v-135.1c0-3.4-1.8-5.8-4.7-6.4l-80-17
					c-2.9-0.6-6.6,2.8-6.6,6.2v139.9C156.6-265.5,158-263.6,160.4-263.1z"/>
				<g>
					<path class="st14" d="M201.4-343.8c-14.6-2.7-26.2,8.6-25.9,25.3c0.4,16.7,12.5,32.4,27.1,35.1c14.6,2.7,26.2-8.6,25.9-25.3
						C228.2-325.4,216.1-341.1,201.4-343.8z M186.8-316.4c-0.2-9.5,6.4-16,14.9-14.5c8.4,1.6,15.3,10.6,15.6,20.1
						c0.2,9.5-6.4,16-14.9,14.5C194-297.8,187-306.8,186.8-316.4z"/>
					<path class="st8" d="M227.4-316.8c-3.3-13.4-13.8-24.7-26.1-27c-9-1.6-16.7,1.9-21.4,8.8l3.2,3l-0.1,0.1l6.3,5.9
						c2.7-3.9,7.1-5.9,12.2-4.9c7,1.3,12.9,7.7,14.9,15.3L227.4-316.8z"/>
					<path class="st0" d="M191-304.1c-2.5-3.5-4-7.8-4.2-12.4c-0.1-4,1.1-7.6,3-10.1l-2.1-2c0-0.1,0.1-0.1,0.1-0.1l-6.8-7.6
						c-0.2,0.2-0.4,0.5-0.5,0.7l0,0l-0.1,0.1c0,0.1-0.1,0.1-0.1,0.1c-0.1,0.1-0.2,0.2-0.2,0.3c-3,4.4-4.7,10.1-4.6,16.6
						c0.2,7.7,2.8,15.2,7.1,21.3L191-304.1z"/>
				</g>
				<path class="st19" d="M187.4-365.1l-9.4-2c-1.5-0.4-2.8-2.2-2.8-4.3l0,0c0-2,1.2-3.5,2.8-3.1l9.4,2c1.5,0.4,2.8,2.2,2.8,4.3l0,0
					C190.1-366.2,188.9-364.8,187.4-365.1z"/>
				<path class="st14" d="M187.4-381.8l-9.4-2c-1.5-0.4-2.8-2.2-2.8-4.3l0,0c0-2,1.2-3.5,2.8-3.1l9.4,2c1.5,0.4,2.8,2.2,2.8,4.3l0,0
					C190.1-382.9,188.9-381.5,187.4-381.8z"/>
				<path class="st14" d="M192.4-380.7l-9.4-2c-1.5-0.4-2.8-2.2-2.8-4.3l0,0c0-2,1.2-3.5,2.8-3.1l9.4,2c1.5,0.4,2.8,2.2,2.8,4.3l0,0
					C195.2-381.8,194-380.3,192.4-380.7z"/>
				<path class="st19" d="M206.9-360.9l-9.4-2c-1.5-0.4-2.8-2.2-2.8-4.3l0,0c0-2,1.2-3.5,2.8-3.1l9.4,2c1.5,0.4,2.8,2.2,2.8,4.3l0,0
					C209.7-362,208.4-360.6,206.9-360.9z"/>
				<path class="st19" d="M226.5-356.7l-9.4-2c-1.5-0.4-2.8-2.2-2.8-4.3l0,0c0-2,1.2-3.5,2.8-3.1l9.4,2c1.5,0.4,2.8,2.2,2.8,4.3l0,0
					C229.2-357.8,228-356.4,226.5-356.7z"/>
			</g>
			<path class="st1" d="M70.3-424.4l-0.8,136.9c0,2.8,1.5,4.9,3.9,5.4l60.5,13c4.3,0.9,9.7-4.1,9.7-9.1l0.7-134.5c0-2.9-1.5-5-4-5.6
				l-62.4-13.3C74.6-432.4,70.3-428.4,70.3-424.4z"/>
			<path class="st0" d="M125-383.3l-28.2-6c-0.8-0.2-1.5-0.9-1.8-1.9l0,0c-0.7-2.2,0.6-4.4,2.3-4l28.2,6c0.8,0.2,1.5,0.9,1.8,1.9
				l0,0C128-385.1,126.7-382.9,125-383.3z"/>
			<path class="st0" d="M125-356l-28.2-6c-0.8-0.2-1.5-0.9-1.8-1.9l0,0c-0.7-2.2,0.6-4.4,2.3-4l28.2,6c0.8,0.2,1.5,0.9,1.8,1.9l0,0
				C128-357.9,126.7-355.6,125-356z"/>
			<path class="st0" d="M125-328.7l-28.2-6c-0.8-0.2-1.5-0.9-1.8-1.9l0,0c-0.7-2.2,0.6-4.4,2.3-4l28.2,6c0.8,0.2,1.5,0.9,1.8,1.9
				l0,0C128-330.6,126.7-328.4,125-328.7z"/>
			<g>
				<path class="st14" d="M87.1-388.8l-5.9-1.3c-0.9-0.2-1.6-1.3-1.6-2.4l0.1-6.2c0-1.2,0.7-1.9,1.6-1.7l5.9,1.3
					c0.9,0.2,1.6,1.3,1.6,2.4l-0.1,6.2C88.7-389.3,88-388.6,87.1-388.8z"/>
				<path class="st14" d="M86.9-361.6l-5.9-1.3c-0.9-0.2-1.6-1.3-1.6-2.4l0.1-6.2c0-1.2,0.7-1.9,1.6-1.7L87-372
					c0.9,0.2,1.6,1.3,1.6,2.4l-0.1,6.2C88.6-362.3,87.9-361.4,86.9-361.6z"/>
				<path class="st14" d="M86.8-334.6l-5.9-1.3c-0.9-0.2-1.6-1.3-1.6-2.4l0.1-6.2c0-1.2,0.7-1.9,1.6-1.7l5.9,1.3
					c0.9,0.2,1.6,1.3,1.6,2.4l-0.1,6.2C88.4-335.2,87.7-334.4,86.8-334.6z"/>
			</g>
			<path class="st8" d="M105.9-282.2l-39-8.4c-5.3-1.1-9.7-7.9-9.6-15v-2.1c0.1-7.1,4.4-12,9.7-10.9l39,8.4c5.3,1.1,9.7,7.9,9.6,15
				v2.1C115.5-286,111.2-281.1,105.9-282.2z"/>
			<path class="st1" d="M102.3-295.9l-33.8-7.2c-0.7-0.2-1.2-1.1-1.2-1.9l0,0c0-0.9,0.6-1.6,1.3-1.4l33.8,7.3
				c0.7,0.2,1.2,1.1,1.2,1.9l0,0C103.6-296.3,103-295.7,102.3-295.9z"/>
			<g>
				<path class="st16" d="M-97.9-204.6c12,6.4,32.4,6.6,45.6,0.5s14.2-16.3,2.2-22.7c-12-6.4-32.4-6.6-45.6-0.5
					C-108.9-221.2-109.9-211-97.9-204.6z"/>
				<path class="st12" d="M-55.3-346c-0.7,0.4-1.3,0.7-2.1,0.8c-1.8,0.2-3.7-0.8-5.4-1.9c-0.2-0.1-0.4-0.2-0.5-0.4
					c-0.2-0.4-0.2-0.8-0.1-1.1c0.6-2.2,1.7-2.1,3.2-3.4c0.7-0.6,1.3-1.2,1.9-1.8c1.1-0.9,2.2-1.6,3.5-2.2l0,0
					c1.5-0.8,6.7-3.6,7.8,0.4c0.5,1.7,0.3,2.8-0.5,3.9c-1,1.3-1.6,2-2.9,2.9C-52-347.7-53.6-346.8-55.3-346z"/>
				<path class="st12" d="M-62.8-349.8c0.6-1.5,0.7-2.3,1.5-3.5c0.6-1,1.5-1.7,2.6-2.2c2.1-0.8,5.6-2,6.7-1.2
					c1.5,1.1-0.1,2.8-0.9,3.8c-1.8,2.1-5,3.6-7.4,4.6c-0.4,0.2-0.8,0.1-1-0.2c-0.1,0.2,0.8-0.4,0.7-0.1
					C-61.2-347.2-63.3-348.4-62.8-349.8z"/>
				<polygon class="st39" points="-62.2,-350.5 -64.7,-347.9 -60,-342.3 -57.1,-345.2 				"/>
				<path class="st14" d="M-45.2-217.4l-11.1-8.5l-6.5-1.1c-2.2,8.4-1.2,7.4,1.3,9.5l9.7,6c5.1,2.5,6.7,2.8,9.7,1.5l0,0
					C-40.3-211.8-42-214.3-45.2-217.4z"/>
				<path class="st14" d="M-97.9-223.3l-1.5-13.9l-3.6-5.4c-7.6,4.3-6.2,4.3-6,7.5l2.3,11.2c1.8,5.4,2.6,6.7,5.6,8l0,0
					C-98.6-215.9-97.9-218.9-97.9-223.3z"/>
				<g>
					<path class="st8" d="M-52.2-376.7c4.7,10,10.1,19.4,16.6,28.3c3.2,4.2,11.8-2.2,8.7-6.4c-6.1-8.3-11.2-17-15.6-26.4
						C-44.7-385.8-54.4-381.4-52.2-376.7L-52.2-376.7z"/>
				</g>
				<g>
					<path class="st12" d="M-57.6-313.2c0.4,29.3-1.1,57.9-6,86.7c-1.2,6.7,9.2,9.7,10.4,2.9c5-29.8,6.8-59.4,6.4-89.6
						C-47-320.1-57.7-320.1-57.6-313.2L-57.6-313.2z"/>
				</g>
				<g>
					<path class="st12" d="M-79.3-304.6c-1.9,12.8-1.4,26.1-3.8,38.7c-2.5,12.5-11.2,18.8-22.4,23.9c-6.3,2.9-0.8,12.1,5.4,9.3
						c12-5.5,22.5-13.3,26.4-26.5c4-13.6,2.6-28.6,4.7-42.6C-68-308.6-78.3-311.5-79.3-304.6L-79.3-304.6z"/>
				</g>
				<path class="st14" d="M-82.1-309.8c1.1,15,10.7,16.6,20.4,10.9c9.7-5.6,15.2-18.4,15.2-29.6c0,0-5.4-16.7-15.2-11.1
					C-71.4-333.9-83.4-327.3-82.1-309.8z"/>
				<path class="st8" d="M-48.9-372.1l2.8,4.4c0,0-0.3,35.4-0.6,38.2c0,0-4.2,8.8-28-0.3l-10-29.5L-48.9-372.1z"/>
				<path class="st8" d="M-85-354.6c-0.9-0.5-4,0.3-4,0.3c-0.6-5.3-5.9-6.8,1.6-15.3c1.1-1.3,18.7-9.8,28.1-11.5
					c4.6-0.8,13.7-4.4,15.6-0.2c1.1,2.5-2.5,13.5-2.5,13.5c0.5,9.7-3.8-3-4.5,2.3c0-0.1,0.1-0.2,0.1-0.4c0,0-1.2,9-2,16
					c-0.5,4.3-0.9,7.5-1,8v0.1L-70-328.9l-8.6-15.5l0,0L-85-354.6z"/>
				<path class="st12" d="M-60.7-381.2c0,0,8.1,8.4,1.1,14.4s-19.1-7.4-19.1-7.4C-72.4-378.1-66.3-380.8-60.7-381.2z"/>
				<path class="st14" d="M-46.5-328.5l5.8,50.1c0.1,0.7-0.1,1.3-0.5,1.9c-2.2,3.7-13.5,13.5-38,8c-2.8-0.6-5.8-0.8-5.8-3.2
					l2.8-42.7l15.5,2.6L-46.5-328.5z"/>
				<path class="st12" d="M-64.4-376.3l3.9-15l-9.4,3l-3.2,12.2C-73.8-374.1-67.2-368.6-64.4-376.3z"/>
				<path class="st12" d="M-60.8-380.7l2.9-0.4c4.4-0.6,7.6-4.9,6.9-9.3l-2.2-14.7c-0.6-4.4-4.9-7.6-9.3-6.9l-2.9,0.4
					c-4.4,0.6-7.6,4.9-6.9,9.3l2.2,14.7C-69.5-383.1-65.3-380-60.8-380.7z"/>
				<path class="st15" d="M-61.9-380.4c-1.2,0.3-4.4-0.1-5.8-0.6c0,0,2.6,2.8,5.6,3.1L-61.9-380.4z"/>
				<path class="st14" d="M-62.8-407.3c0,0-4.2,11.4-8,14.5l0.8,2.3c0.8,2.3,0.5,4.9-0.8,6.9l-0.5,0.9c0,0-20.1-15.4-4-28.6
					c10.9-8.9,25.3-1.3,23.7,9.7L-62.8-407.3z"/>
				<path class="st12" d="M-71.7-387c1.5,0.8,2.9,0.2,3.2-1.5c0.2-1.6-0.8-3.6-2.2-4.4c-1.5-0.8-2.9-0.2-3.2,1.5
					C-74.2-389.8-73.2-387.8-71.7-387z"/>
				<g>
					<path class="st12" d="M-13-338.9l-3.6,2.3c-1.8,1.1-3.9,1.1-4.6-0.2l-0.5-0.9c-0.8-1.2,0-3.2,1.8-4.3l3.6-2.3
						c1.8-1.1,3.9-1.1,4.6,0.2l0.5,0.9C-10.4-341.9-11.2-340-13-338.9z"/>
					<g>
						<path class="st40" d="M-43.2-342.7v-0.9l1.1,0.4l0.2-0.6l28.3-16.3c0.4-0.2,0.9-0.2,1.3,0.1l12.2,7v-0.1l2.2,0.9v0.9l0,0
							c0,0.1-0.1,0.2-0.2,0.2l-29.4,17c-0.4,0.2-0.9,0.2-1.3-0.1l-14.1-8.1C-43.1-342.4-43.2-342.5-43.2-342.7L-43.2-342.7z"/>
						<path class="st41" d="M-27.5-335l29.4-17c0.4-0.2,0.3-0.5-0.1-0.8l-14.1-8.1c-0.4-0.2-1-0.2-1.3-0.1l-29.4,17
							c-0.4,0.2-0.3,0.5,0.1,0.8l14.1,8.1C-28.4-334.8-27.8-334.8-27.5-335z"/>
						<path class="st40" d="M-29.4-345.9l7.1-4.1c0.1-0.1,0.1-0.1,0-0.2l-3.4-2c-0.1-0.1-0.2-0.1-0.4,0l-7.1,4.1
							c-0.1,0.1-0.1,0.1,0,0.2l3.4,2C-29.7-345.9-29.6-345.9-29.4-345.9z"/>
						<path class="st1" d="M-26.7-354.1c0.1-0.8,0.7-1.7,1.3-2l29.2-16.6c0.2-0.2,0.5-0.2,0.6-0.1l0,0l0,0c0.1,0,0.1,0.1,0.2,0.1
							l1,1l-0.9-0.1L2-353.9c-0.1,0.8-0.7,1.7-1.3,2l-27.6,15.7l-0.9,1l-0.1,0.2c-0.6,0.1-1.9-0.8-1.9-0.8L-26.7-354.1z"/>
						<path class="st14" d="M-27.6-334.1l29.2-16.6c0.6-0.4,1.2-1.3,1.3-2l2.8-18.1c0.1-0.8-0.3-1.1-0.9-0.8l-29.2,16.6
							c-0.6,0.4-1.2,1.3-1.3,2l-2.8,18.1C-28.6-334.1-28.2-333.7-27.6-334.1z"/>
						<path class="st1" d="M-12.1-351.7c-0.2,0.9,0.7,1.2,1.9,0.5c1.2-0.7,2.3-2,2.5-3c0.2-0.9-0.7-1.2-1.9-0.5
							C-10.8-354-11.9-352.6-12.1-351.7z"/>
					</g>
				</g>
				<path class="st14" d="M-75.1-409.6c0,0-8.4-7.4-17,3s-15.9-1.9-18.9,3.4c-2.9,5.3-4.7,24.5,9.4,22.6s20.1-4.7,20.5-12.9
					c0.3-8.2,9.6-6.8,9.6-6.8L-75.1-409.6z"/>
				<g>
					<path class="st12" d="M-68.6-299.1c-0.3,0-0.6,0-0.8-0.1c-14.8-3-24.6-9-29-17.7c-4.2-8.3-3.5-19,2.3-31.6c0.9-2,3.4-3,5.4-2
						c2,0.9,3,3.4,2,5.4c-4.7,10.2-5.5,18.4-2.5,24.4c3.2,6.3,11.1,10.8,23.3,13.3c2.2,0.5,3.7,2.6,3.2,4.9
						C-64.9-300.4-66.6-299.1-68.6-299.1z"/>
				</g>
				<g>
					<path class="st8" d="M-87.9-369c-7.7,10.5-10.4,22.8-12.5,35.1c-0.9,5.6,9.6,7.6,10.5,2c1.9-11.6,4.4-23,11.7-32.8
						C-74.8-369.5-84.5-373.6-87.9-369L-87.9-369z"/>
				</g>
			</g>
			<g>
				<g>
					<path class="st8" d="M43.5-191.3c0-0.1,0.1-0.1,0.1-0.2l0,0l5-19.1c1.4-5.3-1.6-11.1-6.6-12.9c-5-1.8-10.2,1-11.7,6.3l-5,19.1
						l0,0c0,0.1-0.1,0.1-0.1,0.2c-1.4,5.3,1.6,11.1,6.6,12.9C36.8-183.2,42-186,43.5-191.3z"/>
					<polygon class="st42" points="27.6,-207.9 56,-317.1 66.9,-315.3 36.9,-199.2 					"/>
					<path class="st14" d="M66.9-315.3c4.3,2.3,3.9-2.4,8.2,2.2L46.9-204.3c-3.8,6.6-7,7.3-10.1,5.5L66.9-315.3z"/>
					<path class="st41" d="M46.4-202.5c0-0.1,0.1-0.1,0.1-0.2l0,0l0.9-3.7c-1.8,4.6-6.7,7-11.5,5.3c-5.2-1.9-8.3-7.7-6.8-13
						c0-0.1,0.1-0.1,0.1-0.2l0,0l-1.3,4.9l0,0c0,0.1-0.1,0.1-0.1,0.2C25.3-199.3,44-192.5,46.4-202.5z"/>
					<path class="st41" d="M35.8-201.1c5.2,1.9,10,1.1,11.4-4.2c0-0.1,0.5-2.2,0.5-2.3l0,0l0.9-3.7c-2,6.7-20.5,2.3-18.4-7.7
						c0-0.1,0.1-0.1,0.1-0.2l0,0l-1.3,4.9l0,0c0,0.1-0.1,0.1-0.1,0.2C27.5-208.8,30.6-203,35.8-201.1z"/>
					<path class="st16" d="M75.4-313.7l-5.8-24.6l-13.5,19.7C56.5-311.2,74.3-307.9,75.4-313.7z"/>
					<path class="st8" d="M70-339.6l2.1,12.2c0,0,0.1,1.5-2.4,1.1c-2.5-0.4-1.7,1.2-4.4,0.4c-2.7-0.8-3-1.6-3-1.6L70-339.6z"/>
				</g>
				<g>
					<g>
						<path class="st12" d="M21.6-255.8c1.2,7.7,3,14.9,6.7,21.7c1.9,3.5,4,6.8,6,10.2c1.6,2.8,3.5,5.4,6.1,7.4
							c13.9,10.3,21.2-15.3,23.1-24c1.2-5.3-7-7.6-8.2-2.2c-1.3,6-2.9,13.5-6.8,18.4c-0.8,0.9-0.9,1.1-1.6,1.5
							c-0.4,0.2-0.3,0.2-0.6,0.1c1.1,0.1-0.1,0-0.4-0.1c-0.1-0.1,0.3,0.2-0.4-0.2c-0.5-0.4-1-0.8-1.7-1.6c-1.9-2.3-3.3-5.1-4.7-7.6
							c-1.5-2.5-3-5-4.3-7.7c-2.8-5.6-4-11.9-5-18C28.9-263.4,20.7-261.2,21.6-255.8L21.6-255.8z"/>
					</g>
				</g>
				
					<ellipse transform="matrix(5.424045e-03 -1 1 5.424045e-03 117.5205 -89.853)" class="st16" cx="13.6" cy="-104" rx="19.5" ry="33.8"/>
				<path class="st14" d="M-4.4-120.4l-7.7,9.6l-0.6,3.6c-0.4,2,0.1,4.2,1.5,5.9c1,1.2,2.1,1.8,3.9,1.9c2.6,0.1,5.2-3.2,6.3-5.3
					l4.3-10c3.4-7.1,1.3-9.1-0.6-10.5l0,0C0.5-126.7-1.8-124.3-4.4-120.4z"/>
				<path class="st14" d="M29.3-105.6l-14.4,3.1l-1.9,5c-0.4,3.6-0.4,5.5,2,7.4c2,1.6,6.1,0.3,8.3-0.7l9.2-5.7
					c6.8-3.9,6.3-6.7,5.5-9l0,0C36.9-108.1,33.7-107.4,29.3-105.6z"/>
				<g>
					<path class="st12" d="M-14-276.4c-7.9,11.9-11.4,27.2-14.5,41c-0.6,3-0.9,4.7-0.1,7.7c2.6,9.7,5.6,18.7,6.7,28.9
						c0.6,5.1,8.7,5.2,8.1,0c-1.1-9.4-2.9-18.6-5.9-27.6c-0.6-1.7-1.2-3.3-1.8-5c0.6,1.5-0.2,2.6,0.1,1.3c0.2-0.9,0.4-1.7,0.6-2.6
						c3-13.3,6.2-28,13.8-39.6C-4.2-276.7-11.2-280.7-14-276.4L-14-276.4z"/>
				</g>
				<path class="st0" d="M-15.6-275c-5.1,7.1-8.8,21-12.5,31.6c-1.3,2.9-0.7,5.9,1.2,6.3l6.4,2.6c1.6,0.4,4.9-2.4,5.7-4.9l9.7-26.8
					c1.6-4.4,0.8-8.7-1.8-10l0.2-2.3C-7-280.4-11.8-280-15.6-275z"/>
				<path class="st1" d="M-5.2-222.5c0,3-2.1,6.7-4.7,8.2c-2.6,1.5-4.7,0.3-4.7-2.7c0-3,2.1-6.7,4.7-8.2
					C-7.3-226.7-5.2-225.4-5.2-222.5z"/>
				<path class="st43" d="M20.1-303.3l0.1,1.5c0,0,0.2,4.6-4.3,2.2c-4.5-2.4-4.4-8.1-4.4-8.1S14.9-308.1,20.1-303.3z"/>
				<path class="st44" d="M15.8-299.4c5.9,3,5.7-2.3,5.7-2.3h0.1l-0.2-1.8c-6.6-5.6-10.8-5.4-10.8-5.4S9.9-302.5,15.8-299.4z
					 M11.7-307.4c0,0,3.3-0.2,8.4,4.2l0.1,1.3c0,0,0.2,4-4.2,1.7C11.5-302.5,11.7-307.4,11.7-307.4z"/>
				<polygon class="st44" points="23.7,-300.7 20.2,-302.3 20,-304.2 23.5,-302.7 				"/>
				<path class="st44" d="M10.8-307.4l-0.6-0.3c-0.4-0.2-0.6-0.6-0.7-1.1l0,0c-0.1-0.4,0.2-0.6,0.5-0.5l0.6,0.3
					c0.4,0.2,0.6,0.6,0.7,1.1l0,0C11.4-307.4,11.2-307.2,10.8-307.4z"/>
				<path class="st45" d="M12.3-305.1L12.3-305.1c-0.1-0.2-0.2-0.4-0.1-0.5l1.1-1.2c0.1-0.1,0.3-0.1,0.4,0.1l0,0
					c0.1,0.2,0.2,0.4,0.1,0.5l-1.1,1.2C12.7-304.8,12.5-304.9,12.3-305.1z"/>
				<g>
					<g>
						<path class="st46" d="M11-186.5c5.4,15.7,5.9,32.6,5.3,49.1c-0.4,12.2-2.3,24.6-2,36.9c0.2,8,12.7,8.1,12.5,0
							c-0.3-12.6,1.7-25.3,2-37.9c0.5-17.2-0.2-35-5.9-51.4C20.5-197.3,8.4-194.1,11-186.5L11-186.5z"/>
					</g>
				</g>
				<g>
					<g>
						<path class="st46" d="M-14.2-200.6c2.8,10.2,4.1,20.7,5.1,31.3c0.6,6.2,1.3,12.1,0.7,18.3c-1.3,12.5-3.6,25.2-3.6,37.7
							c0.1,8.1,12.6,8.1,12.5,0c-0.1-12.8,2.3-25.6,3.6-38.3c0.6-6.4-0.2-12.6-0.9-19c-1.1-11.2-2.5-22.5-5.4-33.4
							C-4.3-211.6-16.3-208.3-14.2-200.6L-14.2-200.6z"/>
					</g>
				</g>
				<path class="st46" d="M-3.9-184L-3.9-184c1.2,1.3-3.8-5-2.3-4.1c3.1,1.9,20.5,13.7,24.1,13.8c4.4,0.1,1.8-4.2,5.1-7.1
					c3.1-2.8,3.8-7.3,4.1-11.4c0.1-1.2,0.1-2.3-0.3-3.4c-0.5-1.1-1.5-1.9-2.5-2.7c-7.7-5.9-22.9-20.3-33.7-15.7
					C-21.9-209.2-9.5-190.2-3.9-184z"/>
				<path class="st0" d="M-13-276.5c-2.3,2.9-2,4.7-1.9,8.8c0.1,3.9,2.8,7.3,6.6,8.4l38.7,10.8c0,0,2.2-14.9-5.4-19.4
					c-4.1-2.4-10.5-6.3-15.5-9.3C2.1-281.7-7.7-283.3-13-276.5z"/>
				<path class="st12" d="M4.6-277l3.3-14.6l8.9,6l-2.7,13.3C13.9-270.2,4-272,4.6-277z"/>
				<path class="st12" d="M10.1-312.9c0,0-8.9-6.2-9,8.9C1-293.5,7.4-284.4,16-280.3c5.4,2.6,11.9-0.7,12.2-6
					c1.3-7.6,1.3-14.8-1.2-20.9c0.4-6.3-4-4-11.5-4.4L10.1-312.9z"/>
				<path class="st14" d="M5-283.6c0,0-10.3-3.8-9.4-18.3c1.1-15.7,15.5-14.3,23.5-15.1c3.6-0.4,6-0.9,9.7,2.4
					c3.3,2.9,0.2,9.6-4.5,10c-1.9,0.2-1,5.3-1.4,7c-0.7,3.1-2.6,4.6-3.3,7.6c-0.7,2.9-4.9,7.3-7.6,7.6C7.2-281.9,5-283.6,5-283.6z"
					/>
				<path class="st0" d="M-15-206.5c-2.5-0.9-1.9-43.3,0.4-66.7l43.6,20.7c-0.2,19.9-2.8,35.7-0.4,59.9L-15-206.5z"/>
				<path class="st0" d="M14-188.3c-10.8-3.9-21-8.3-27-15.6c-3-1.7-2.6-4.7,0.8-6.7l0,0c3.4-2,8.6-2.2,11.6-0.5l27,15.6
					c3,1.7,2.6,4.7-0.8,6.7l0,0C22.2-186.8,16.9-186.6,14-188.3z"/>
				<path class="st47" d="M28.9-252.5l-7.2-3.4c-0.3,19.4-2.7,35-0.4,58.8l-0.1-0.1c0.1,1.3-0.9,2.8-2.8,3.9l0,0
					c-3.4,2-8.6,2.2-11.6,0.5C1.7-194.6-3.4-196.6-8-199c6,4.6,13.8,7.7,21.9,10.7c3,1.7,8.2,1.5,11.6-0.5l0,0
					c1.9-1.1,2.9-2.5,2.8-3.9l0.1,0.1C26.1-216.9,28.6-232.6,28.9-252.5z"/>
				<path class="st1" d="M19.9-270.8c-10-1.5-16.7,4.8-19.1-9.6l0,0c1.5-0.9,3.3-0.5,4.3,0.9c1.7,2.5,5.4,4,9.4,3.6
					c1.2-0.2,2.4,0.4,3,1.4L19.9-270.8z"/>
				<path class="st12" d="M22-293.1c0.2,2.5-1.1,4.6-2.8,4.8c-0.2,0-0.4,0-0.6,0c-1.5-0.2-2.9-2-3-4.2c-0.2-2.5,1.1-4.6,2.8-4.8
					C20.2-297.5,21.8-295.6,22-293.1z"/>
				<circle class="st14" cx="17.5" cy="-313.6" r="6.2"/>
				<circle class="st14" cx="24.5" cy="-314.3" r="6.2"/>
				<circle class="st14" cx="25.5" cy="-308" r="6.2"/>
				<path class="st0" d="M17.2-256.4c4.3,21.4,12.3,34.5,22.3,40.7c5.2,2.3,9.2-5.9,6.9-10.4c-10.1-7.6-14.5-20.3-16.6-35.1
					c-1.5-2.9-5.1-4.3-8.4-3.1l0,0C18-263.1,16.1-259.6,17.2-256.4z"/>
			</g>
			<g>
				<path class="st16" d="M268.2-168.3c-17-10.2-45-10.7-62.4-1.1s-17.6,25.8-0.6,36s44.7,10.7,62.4,1.2
					C287-142.5,285.2-158.1,268.2-168.3z"/>
				<path class="st47" d="M254.1-170.5c-16.2-9.7-42.7-10.1-59.2-1c-16.5,9.2-16.7,24.5-0.6,34.2c16.2,9.7,42.4,10.2,59.2,1.2
					C272-146,270.3-160.8,254.1-170.5z"/>
				<path class="st0" d="M253.5-180.6c-16.2-9.7-42.7-10.1-59.2-1c-16.5,9.2-16.7,24.5-0.6,34.2c16.2,9.7,42.4,10.2,59.2,1.2
					C271.4-156.1,269.7-170.9,253.5-180.6z"/>
				<polyline class="st48" points="213.5,-173.9 208.7,-157.4 247.5,-166.3 				"/>
			</g>
			<g>
				<path class="st49" d="M155.6-187.9c-15.6-9.4-41.2-9.8-57.1-0.9c-15.9,8.8-16.2,23.6-0.5,33c15.6,9.4,40.9,9.8,57.1,1.1
					C172.9-164.2,171.3-178.5,155.6-187.9z"/>
				<path class="st8" d="M142.8-189.9c-14.8-8.9-39.1-9.3-54.3-0.9c-15.1,8.4-15.3,22.4-0.5,31.3c14.8,8.9,38.9,9.3,54.3,1.1
					C159.2-167.5,157.6-181,142.8-189.9z"/>
				<path class="st8" d="M142.2-199.1c-14.8-8.9-39.1-9.3-54.3-0.9c-15.1,8.4-15.3,22.4-0.5,31.3c14.8,8.9,38.9,9.3,54.3,1.1
					C158.6-176.7,157-190.2,142.2-199.1z"/>
				<line class="st48" x1="110.1" y1="-198.5" x2="118.4" y2="-172"/>
				<line class="st48" x1="129.5" y1="-188.9" x2="100.7" y2="-183.9"/>
			</g>
		</g>
	</g>
</g>
</svg>
